<svg version="1.1" id="Layer_1" xmlns="http://www.w3.org/2000/svg" xmlns:xlink="http://www.w3.org/1999/xlink" x="0px" y="0px"
	 width="100%" viewBox="0 0 2048 2048" enable-background="new 0 0 2048 2048" xml:space="preserve">
<path fill="#000000" opacity="1.000000" stroke="none" 
	d="
M1193.000000,2049.000000 
	C795.333313,2049.000000 398.166656,2049.000000 1.000000,2049.000000 
	C1.000000,1366.333374 1.000000,683.666687 1.000000,1.000000 
	C683.666687,1.000000 1366.333374,1.000000 2049.000000,1.000000 
	C2049.000000,683.666687 2049.000000,1366.333374 2049.000000,2049.000000 
	C1763.833374,2049.000000 1478.666626,2049.000000 1193.000000,2049.000000 
M222.493591,1081.000732 
	C240.693710,1094.846802 259.697235,1107.449951 280.095673,1117.631958 
	C277.169952,1120.285034 274.114655,1122.285156 272.087006,1125.041260 
	C266.400696,1132.770752 266.211884,1142.208130 266.154144,1151.095215 
	C265.561401,1242.345459 265.230835,1333.597778 265.026550,1424.849976 
	C264.868744,1495.335327 264.964722,1565.821289 265.038971,1636.307007 
	C265.046967,1643.892334 265.659943,1651.477417 266.002655,1659.062134 
	C266.024811,1659.553101 266.051086,1660.071655 266.218933,1660.524292 
	C269.607422,1669.662354 272.344818,1679.116821 276.561462,1687.857300 
	C285.473511,1706.330200 297.886658,1722.211426 313.249512,1736.003174 
	C324.553894,1746.151611 337.072540,1754.153442 350.555573,1760.774902 
	C355.831268,1763.365723 361.462891,1765.553711 367.176605,1766.843384 
	C373.343903,1768.235352 379.796875,1768.362183 386.125244,1769.040283 
	C398.461639,1770.361938 410.791656,1772.732788 423.135590,1772.807373 
	C459.551300,1773.027344 495.971832,1772.217529 532.391602,1772.029785 
	C612.476501,1771.616699 692.562073,1771.338867 772.647400,1771.004517 
	C852.232727,1770.672119 931.817993,1770.337280 1011.403320,1770.005005 
	C1091.488647,1769.670532 1171.573730,1769.285645 1251.659302,1769.027100 
	C1291.325073,1768.898926 1330.991821,1769.005249 1370.658081,1769.002563 
	C1372.156372,1769.002441 1373.712402,1769.230835 1375.143921,1768.913330 
	C1386.758911,1766.336792 1398.517212,1764.213379 1409.893555,1760.817993 
	C1418.107544,1758.366699 1426.098267,1754.726196 1433.661743,1750.640747 
	C1444.843018,1744.601074 1454.823853,1736.844360 1464.540405,1728.496216 
	C1474.442139,1719.989136 1482.369751,1710.149292 1490.048950,1699.854370 
	C1499.199585,1687.586548 1500.883545,1673.336548 1500.949463,1658.800903 
	C1501.389038,1561.882935 1501.674805,1464.964233 1501.999878,1368.045776 
	C1502.035645,1357.379272 1502.004761,1346.712646 1502.004761,1336.046021 
	C1502.004761,1334.423096 1502.004761,1332.800293 1502.004761,1331.047729 
	C1511.979736,1331.721680 1521.459229,1332.866577 1530.941895,1332.893677 
	C1548.526611,1332.943848 1566.123535,1332.607666 1583.696167,1331.934082 
	C1600.631104,1331.284912 1617.544556,1330.051514 1634.462036,1328.986450 
	C1643.471069,1328.419312 1652.619385,1328.472046 1661.437988,1326.820068 
	C1677.852295,1323.745483 1694.686279,1322.510498 1710.410767,1316.072876 
	C1721.627319,1311.480957 1733.339844,1308.025757 1744.326172,1302.966797 
	C1755.648315,1297.753418 1766.385376,1291.259521 1777.328247,1285.234863 
	C1785.185791,1280.908936 1792.991211,1276.485229 1800.763550,1272.007446 
	C1807.028442,1268.398193 1813.736816,1265.300659 1819.320557,1260.819702 
	C1832.039062,1250.613281 1844.249268,1239.767334 1856.543945,1229.041382 
	C1863.873535,1222.646851 1870.589355,1215.485718 1878.296143,1209.606567 
	C1884.342896,1204.993774 1891.132935,1199.604858 1898.217407,1198.473755 
	C1912.302368,1196.224976 1926.818359,1196.685059 1941.155029,1196.000610 
	C1951.969116,1195.484253 1962.781372,1194.928223 1973.995239,1194.369873 
	C1973.995239,1195.835449 1974.028076,1197.472290 1973.989990,1199.107544 
	C1973.665771,1213.026978 1973.239624,1226.944702 1973.014771,1240.865723 
	C1972.612183,1265.783569 1972.326050,1290.703613 1971.995972,1315.622681 
	C1971.659302,1341.041748 1971.331055,1366.460938 1970.994507,1391.880005 
	C1970.664429,1416.799072 1970.327759,1441.718262 1969.995483,1466.637329 
	C1969.661011,1491.723145 1969.329346,1516.808838 1968.994995,1541.894653 
	C1968.662842,1566.813721 1968.261230,1591.732178 1968.010376,1616.652100 
	C1967.618652,1655.570557 1967.322021,1694.489990 1967.002197,1733.409058 
	C1966.952881,1739.408569 1966.995239,1745.408936 1966.995239,1751.408813 
	C1966.995239,1752.847900 1966.995239,1754.286987 1966.995239,1756.744507 
	C1948.638916,1755.809570 1930.815796,1755.290039 1913.065918,1753.860962 
	C1901.282715,1752.912354 1889.449707,1751.347656 1877.933228,1748.752808 
	C1870.297119,1747.032104 1861.964844,1745.549438 1857.391479,1737.159546 
	C1854.897095,1732.583252 1850.886230,1728.779907 1847.305542,1724.859619 
	C1837.965576,1714.633545 1828.455322,1704.563232 1819.069946,1694.378296 
	C1808.872559,1683.312012 1798.948120,1671.985474 1788.512329,1661.150269 
	C1780.232422,1652.553711 1771.572021,1644.291992 1762.691650,1636.314331 
	C1754.094116,1628.590820 1745.665283,1620.369019 1735.977661,1614.237671 
	C1718.878540,1603.415527 1701.275635,1593.206665 1683.116333,1584.306763 
	C1671.166504,1578.450073 1658.113159,1574.296875 1645.113281,1571.278809 
	C1631.092773,1568.023804 1616.589966,1566.710083 1602.239624,1565.050781 
	C1587.776367,1563.378418 1573.263672,1561.903198 1558.730835,1561.146851 
	C1549.524658,1560.667847 1540.231323,1561.492432 1530.996338,1562.048950 
	C1523.686157,1562.489624 1517.893066,1566.131104 1514.309448,1572.427246 
	C1510.436157,1579.232788 1510.139282,1586.875488 1509.845947,1594.609131 
	C1509.507568,1603.526733 1516.956299,1609.464478 1524.701904,1609.945679 
	C1534.074707,1610.527954 1543.477295,1610.614990 1552.862183,1611.028320 
	C1557.619629,1611.237671 1562.399048,1611.449707 1567.111816,1612.083130 
	C1580.956177,1613.943481 1594.772705,1616.011963 1608.599243,1618.005859 
	C1618.306763,1619.405762 1628.062744,1620.654419 1636.875977,1625.431396 
	C1651.958130,1633.606079 1667.349609,1641.272827 1682.014771,1650.139282 
	C1704.748169,1663.883667 1726.166992,1679.584351 1744.857178,1698.573364 
	C1753.973755,1707.835815 1761.426880,1718.768066 1770.761963,1727.773926 
	C1780.205566,1736.884399 1788.259277,1747.050171 1795.624512,1757.638916 
	C1803.973022,1769.640869 1813.887573,1779.988037 1825.208984,1788.813721 
	C1833.323608,1795.139526 1842.580078,1800.186279 1851.806152,1804.857422 
	C1865.671997,1811.877563 1881.131226,1812.475220 1896.226562,1813.894287 
	C1909.014526,1815.096680 1921.887451,1815.745972 1934.732422,1815.916138 
	C1958.228027,1816.227661 1981.735474,1816.273071 2005.228271,1815.867065 
	C2014.107910,1815.713623 2018.080566,1811.558838 2018.898315,1803.668823 
	C2019.713989,1795.799561 2019.789429,1787.844116 2019.980591,1779.921387 
	C2020.392944,1762.837524 2020.671387,1745.750244 2021.004761,1728.664429 
	C2021.338013,1711.578613 2021.665039,1694.492554 2022.006592,1677.406860 
	C2022.331543,1661.154175 2022.680908,1644.902100 2023.002563,1628.649292 
	C2023.347168,1611.230225 2023.662598,1593.810791 2024.007202,1576.391724 
	C2024.328613,1560.138916 2024.701538,1543.887207 2024.997192,1527.634033 
	C2025.362427,1507.548828 2025.634766,1487.461792 2026.017456,1467.376953 
	C2026.285889,1453.289795 2026.704712,1439.205688 2026.996704,1425.118896 
	C2027.364746,1407.367065 2027.655640,1389.613647 2028.009399,1371.861572 
	C2028.320068,1356.275269 2028.697388,1340.690186 2028.997925,1325.103760 
	C2029.359619,1306.351807 2029.645630,1287.598389 2030.013306,1268.846558 
	C2030.305664,1253.926636 2030.738159,1239.009033 2030.989258,1224.088501 
	C2031.380615,1200.837036 2031.704956,1177.584229 2031.985352,1154.331177 
	C2032.073975,1146.979492 2026.943359,1141.999878 2019.503174,1141.998657 
	C1976.503540,1141.991699 1933.503784,1141.949463 1890.504517,1142.077881 
	C1886.855103,1142.088745 1882.817993,1142.471069 1879.634399,1144.044067 
	C1869.897217,1148.854980 1860.063354,1153.696899 1851.071655,1159.726685 
	C1842.037964,1165.784668 1833.983643,1173.299927 1825.476074,1180.146606 
	C1815.990845,1187.780029 1806.618896,1195.563843 1796.944458,1202.950562 
	C1783.226074,1213.424683 1769.829956,1224.474487 1755.270386,1233.651123 
	C1740.412720,1243.015869 1724.723511,1251.350586 1708.627075,1258.366455 
	C1696.414185,1263.689819 1683.181030,1267.218628 1670.056030,1269.756348 
	C1655.530640,1272.564941 1640.626221,1273.486938 1625.858521,1274.941650 
	C1616.215088,1275.891602 1606.520996,1276.328735 1596.849487,1276.992920 
	C1582.260132,1277.994873 1567.683838,1279.403320 1553.077271,1279.882446 
	C1537.760498,1280.385010 1522.414185,1279.935913 1507.081543,1280.037964 
	C1503.415283,1280.062378 1501.850708,1278.261963 1501.928345,1274.958618 
	C1502.020142,1271.055786 1502.759277,1267.158325 1502.716919,1263.263916 
	C1502.571411,1249.850586 1502.083862,1236.440552 1501.984497,1223.027222 
	C1501.941650,1217.257568 1502.696533,1211.486084 1502.794312,1205.710449 
	C1502.945068,1196.810913 1502.843384,1187.906982 1502.847168,1179.005005 
	C1502.853027,1165.338501 1502.748901,1151.670044 1502.982788,1138.007446 
	C1503.016968,1136.010986 1504.126465,1133.056030 1505.650757,1132.231689 
	C1512.079224,1128.755005 1519.215210,1126.510742 1525.425781,1122.722778 
	C1538.350952,1114.839478 1551.328369,1106.894165 1563.406860,1097.807983 
	C1577.968384,1086.854004 1591.876343,1074.982178 1605.577393,1062.949829 
	C1615.380127,1054.340942 1624.763306,1045.172241 1633.626953,1035.598999 
	C1642.756104,1025.739136 1651.679932,1015.554077 1659.505859,1004.658203 
	C1668.677490,991.888733 1677.388062,978.638306 1684.803711,964.795654 
	C1693.869507,947.872681 1701.228760,930.375061 1705.918457,911.267822 
	C1712.624512,883.945190 1721.997925,857.279602 1725.016602,829.090942 
	C1726.425659,815.931274 1728.410889,802.777405 1728.814819,789.580566 
	C1729.291016,774.020020 1728.750122,758.392395 1727.872192,742.837830 
	C1727.193237,730.806702 1726.099121,718.688599 1723.770020,706.889404 
	C1720.975830,692.734802 1717.288452,678.679871 1712.860229,664.945312 
	C1708.052490,650.033630 1702.806030,635.142578 1696.230713,620.946594 
	C1682.552002,591.414490 1665.407593,563.942139 1643.325928,539.819763 
	C1632.924438,528.457214 1622.657959,516.917419 1611.563843,506.255585 
	C1596.159180,491.451416 1580.608887,476.688568 1564.038574,463.241821 
	C1550.270630,452.069214 1535.187622,442.434753 1520.212769,432.861145 
	C1510.502686,426.653442 1500.152222,421.326599 1489.703857,416.425323 
	C1477.094604,410.510376 1464.385498,404.494720 1451.156738,400.296448 
	C1436.040649,395.499237 1420.428223,391.971527 1404.803345,389.159210 
	C1390.392944,386.565430 1375.715820,384.923981 1361.090454,384.207428 
	C1347.553711,383.544189 1333.904419,384.258545 1320.351685,385.113098 
	C1307.821899,385.903198 1295.140503,386.675293 1282.910645,389.269257 
	C1265.510254,392.959991 1248.249023,397.653961 1231.325317,403.143188 
	C1215.828247,408.169617 1200.586060,414.219055 1185.738037,420.937103 
	C1172.734131,426.820770 1160.332275,434.078094 1147.851929,441.063416 
	C1135.785034,447.817444 1123.762695,454.691589 1112.086670,462.090424 
	C1102.878662,467.925293 1094.143799,474.525055 1085.351196,480.992310 
	C1077.062866,487.088745 1068.633667,493.065033 1060.882690,499.803162 
	C1051.284668,508.146973 1042.110962,517.011475 1033.134644,526.029785 
	C1020.156494,539.068542 1007.329224,552.270020 994.806946,565.745300 
	C986.789490,574.372864 979.328552,583.528625 971.813171,592.609009 
	C961.340393,605.262817 950.906433,617.954346 940.741699,630.854980 
	C935.595215,637.386597 930.927429,644.313232 926.305420,651.236328 
	C917.378845,664.606750 908.082520,677.774780 899.946594,691.618591 
	C886.695862,714.165466 873.659973,736.880310 861.647156,760.100403 
	C850.918701,780.837585 842.505798,802.783752 831.562683,823.395630 
	C822.226013,840.981689 810.371521,857.211426 800.317078,874.441650 
	C789.920532,892.258301 779.051453,909.746948 766.829590,926.339417 
	C759.701782,936.016174 751.836914,945.160583 744.112488,954.384338 
	C736.332947,963.673889 728.794373,973.239197 720.281067,981.821533 
	C709.984314,992.201782 698.948059,1001.875610 687.911865,1011.487793 
	C676.303955,1021.597961 664.514282,1031.522949 652.430725,1041.055786 
	C643.906189,1047.780762 634.958496,1054.025269 625.836060,1059.921631 
	C615.850403,1066.375854 605.392151,1072.093872 595.237976,1078.293579 
	C580.933044,1087.027588 566.092773,1094.693481 550.165344,1099.941528 
	C531.568665,1106.068848 512.047546,1106.483398 492.775726,1107.804199 
	C482.096283,1108.536133 471.234100,1107.865112 460.543091,1106.870972 
	C444.176849,1105.349365 427.667419,1104.062500 411.621674,1100.733765 
	C392.176086,1096.699707 372.793121,1091.668945 354.053101,1085.144897 
	C338.589539,1079.761475 323.807800,1072.135620 309.251373,1064.498291 
	C288.404602,1053.560547 268.407104,1041.122559 250.811478,1025.287720 
	C237.588760,1013.388123 223.908875,1001.861877 211.815582,988.880981 
	C200.284897,976.503906 189.855042,962.938782 180.179245,949.034363 
	C165.749329,928.298340 152.762894,906.564575 143.114212,883.119080 
	C136.294098,866.546753 129.347443,849.908203 124.301277,832.756653 
	C119.042000,814.880798 115.809021,796.392456 112.030869,778.101501 
	C107.880150,758.006836 106.079506,737.638672 106.010391,717.121948 
	C105.980637,708.288757 104.749741,699.230469 106.277817,690.669495 
	C109.383064,673.272400 113.789787,656.093506 118.037941,638.918152 
	C122.840912,619.499573 131.224899,601.433838 140.700989,583.963440 
	C150.831787,565.286072 163.038666,547.903381 176.868729,531.748413 
	C182.539017,525.124939 188.565231,518.754517 194.896317,512.762024 
	C202.001984,506.036438 209.480133,499.677124 217.079514,493.507355 
	C226.136261,486.154297 234.944595,478.270020 244.848312,472.237518 
	C260.182739,462.897217 276.069824,454.338959 292.258881,446.566132 
	C305.507660,440.204987 319.269043,434.610504 333.287811,430.225464 
	C353.722961,423.833405 374.425262,418.087616 395.891968,415.978271 
	C412.642303,414.332367 429.357544,411.977081 446.147552,411.173798 
	C468.554260,410.101746 490.946472,411.455292 513.148376,415.009918 
	C524.023071,416.751038 535.010681,418.015869 545.730347,420.450592 
	C569.507690,425.851074 593.119141,432.148987 615.416687,442.144226 
	C634.133484,450.534271 652.736572,459.379456 670.574219,469.465851 
	C684.884583,477.557739 698.109497,487.619293 711.549744,497.181244 
	C719.553406,502.875366 727.411133,508.888306 734.661316,515.496460 
	C742.278503,522.439270 749.399658,529.995239 756.184265,537.766296 
	C766.059021,549.076721 775.737183,560.588501 784.919495,572.462646 
	C790.619324,579.833313 795.805298,587.731262 800.235718,595.925781 
	C808.534912,611.275696 816.212402,626.966003 823.965088,642.605652 
	C829.064209,652.892090 830.729797,664.560974 836.984009,674.458252 
	C842.552612,683.270630 848.760193,691.338318 860.445251,688.732117 
	C866.333496,687.418823 872.689148,684.351013 876.883667,680.136169 
	C884.433105,672.549988 887.382812,662.685608 883.952209,651.892029 
	C877.646362,632.052429 871.634399,612.102844 864.667969,592.494751 
	C858.162781,574.184753 846.836670,558.343750 836.487732,542.079041 
	C831.936218,534.925720 826.838806,528.099976 821.701843,521.344055 
	C815.491760,513.176697 809.484253,504.763306 802.473145,497.319092 
	C792.360474,486.581665 781.612976,476.415436 770.769043,466.403320 
	C764.015625,460.167877 756.902588,454.214020 749.388916,448.933350 
	C735.527161,439.191162 721.633118,429.387787 707.040771,420.822540 
	C692.677490,412.391754 677.607178,405.091064 662.516174,397.998688 
	C650.827576,392.505402 638.730530,387.826294 626.625366,383.291473 
	C616.450317,379.479706 606.130554,375.921631 595.648560,373.088379 
	C570.852478,366.386078 545.955017,360.086487 520.214722,357.917633 
	C508.351868,356.918152 496.545532,354.272156 484.702850,354.203003 
	C455.767944,354.034058 426.744293,352.384460 397.940430,356.975433 
	C382.572723,359.424866 366.916779,360.630280 351.856781,364.305847 
	C332.270721,369.086060 312.721893,374.663452 293.944580,381.932281 
	C274.993622,389.268311 256.945099,398.968018 238.633591,407.903503 
	C233.315231,410.498657 228.245972,413.738037 223.422562,417.185822 
	C213.506683,424.273804 203.769318,431.617279 194.077850,439.012024 
	C182.742035,447.661469 171.040421,455.922699 160.403915,465.372589 
	C149.033020,475.474945 138.444550,486.510193 128.043304,497.632660 
	C121.524574,504.603394 115.171516,511.986450 110.182297,520.071960 
	C101.943794,533.423218 94.245331,547.194763 87.488998,561.347534 
	C81.503067,573.886536 76.084457,586.892212 72.266594,600.222046 
	C67.223389,617.830078 63.883537,635.933044 59.999084,653.863953 
	C55.611919,674.115479 54.764118,694.755676 54.116142,715.356873 
	C53.768127,726.421326 54.429974,737.537842 55.054790,748.607300 
	C55.803623,761.873657 56.304573,775.214111 58.180397,788.341309 
	C60.416359,803.988770 63.299095,819.620728 67.178017,834.936218 
	C71.656052,852.617310 77.235733,870.040710 82.907654,887.389465 
	C85.983856,896.798706 89.885162,905.987671 94.057068,914.977722 
	C100.647888,929.180298 107.159637,943.482788 114.861259,957.088379 
	C122.141357,969.949402 130.737732,982.085693 139.087646,994.313721 
	C144.680466,1002.504028 150.367950,1010.723511 156.885803,1018.165588 
	C165.791626,1028.334473 175.708389,1037.610352 184.860565,1047.573242 
	C196.120422,1059.830444 208.772186,1070.450684 222.493591,1081.000732 
z"/>
<path fill="#FCFCFC" opacity="1.000000" stroke="none" 
	d="
M222.236816,1080.738281 
	C208.772186,1070.450684 196.120422,1059.830444 184.860565,1047.573242 
	C175.708389,1037.610352 165.791626,1028.334473 156.885803,1018.165588 
	C150.367950,1010.723511 144.680466,1002.504028 139.087646,994.313721 
	C130.737732,982.085693 122.141357,969.949402 114.861259,957.088379 
	C107.159637,943.482788 100.647888,929.180298 94.057068,914.977722 
	C89.885162,905.987671 85.983856,896.798706 82.907654,887.389465 
	C77.235733,870.040710 71.656052,852.617310 67.178017,834.936218 
	C63.299095,819.620728 60.416359,803.988770 58.180397,788.341309 
	C56.304573,775.214111 55.803623,761.873657 55.054790,748.607300 
	C54.429974,737.537842 53.768127,726.421326 54.116142,715.356873 
	C54.764118,694.755676 55.611919,674.115479 59.999084,653.863953 
	C63.883537,635.933044 67.223389,617.830078 72.266594,600.222046 
	C76.084457,586.892212 81.503067,573.886536 87.488998,561.347534 
	C94.245331,547.194763 101.943794,533.423218 110.182297,520.071960 
	C115.171516,511.986450 121.524574,504.603394 128.043304,497.632660 
	C138.444550,486.510193 149.033020,475.474945 160.403915,465.372589 
	C171.040421,455.922699 182.742035,447.661469 194.077850,439.012024 
	C203.769318,431.617279 213.506683,424.273804 223.422562,417.185822 
	C228.245972,413.738037 233.315231,410.498657 238.633591,407.903503 
	C256.945099,398.968018 274.993622,389.268311 293.944580,381.932281 
	C312.721893,374.663452 332.270721,369.086060 351.856781,364.305847 
	C366.916779,360.630280 382.572723,359.424866 397.940430,356.975433 
	C426.744293,352.384460 455.767944,354.034058 484.702850,354.203003 
	C496.545532,354.272156 508.351868,356.918152 520.214722,357.917633 
	C545.955017,360.086487 570.852478,366.386078 595.648560,373.088379 
	C606.130554,375.921631 616.450317,379.479706 626.625366,383.291473 
	C638.730530,387.826294 650.827576,392.505402 662.516174,397.998688 
	C677.607178,405.091064 692.677490,412.391754 707.040771,420.822540 
	C721.633118,429.387787 735.527161,439.191162 749.388916,448.933350 
	C756.902588,454.214020 764.015625,460.167877 770.769043,466.403320 
	C781.612976,476.415436 792.360474,486.581665 802.473145,497.319092 
	C809.484253,504.763306 815.491760,513.176697 821.701843,521.344055 
	C826.838806,528.099976 831.936218,534.925720 836.487732,542.079041 
	C846.836670,558.343750 858.162781,574.184753 864.667969,592.494751 
	C871.634399,612.102844 877.646362,632.052429 883.952209,651.892029 
	C887.382812,662.685608 884.433105,672.549988 876.883667,680.136169 
	C872.689148,684.351013 866.333496,687.418823 860.445251,688.732117 
	C848.760193,691.338318 842.552612,683.270630 836.984009,674.458252 
	C830.729797,664.560974 829.064209,652.892090 823.965088,642.605652 
	C816.212402,626.966003 808.534912,611.275696 800.235718,595.925781 
	C795.805298,587.731262 790.619324,579.833313 784.919495,572.462646 
	C775.737183,560.588501 766.059021,549.076721 756.184265,537.766296 
	C749.399658,529.995239 742.278503,522.439270 734.661316,515.496460 
	C727.411133,508.888306 719.553406,502.875366 711.549744,497.181244 
	C698.109497,487.619293 684.884583,477.557739 670.574219,469.465851 
	C652.736572,459.379456 634.133484,450.534271 615.416687,442.144226 
	C593.119141,432.148987 569.507690,425.851074 545.730347,420.450592 
	C535.010681,418.015869 524.023071,416.751038 513.148376,415.009918 
	C490.946472,411.455292 468.554260,410.101746 446.147552,411.173798 
	C429.357544,411.977081 412.642303,414.332367 395.891968,415.978271 
	C374.425262,418.087616 353.722961,423.833405 333.287811,430.225464 
	C319.269043,434.610504 305.507660,440.204987 292.258881,446.566132 
	C276.069824,454.338959 260.182739,462.897217 244.848312,472.237518 
	C234.944595,478.270020 226.136261,486.154297 217.079514,493.507355 
	C209.480133,499.677124 202.001984,506.036438 194.896317,512.762024 
	C188.565231,518.754517 182.539017,525.124939 176.868729,531.748413 
	C163.038666,547.903381 150.831787,565.286072 140.700989,583.963440 
	C131.224899,601.433838 122.840912,619.499573 118.037941,638.918152 
	C113.789787,656.093506 109.383064,673.272400 106.277817,690.669495 
	C104.749741,699.230469 105.980637,708.288757 106.010391,717.121948 
	C106.079506,737.638672 107.880150,758.006836 112.030869,778.101501 
	C115.809021,796.392456 119.042000,814.880798 124.301277,832.756653 
	C129.347443,849.908203 136.294098,866.546753 143.114212,883.119080 
	C152.762894,906.564575 165.749329,928.298340 180.179245,949.034363 
	C189.855042,962.938782 200.284897,976.503906 211.815582,988.880981 
	C223.908875,1001.861877 237.588760,1013.388123 250.811478,1025.287720 
	C268.407104,1041.122559 288.404602,1053.560547 309.251373,1064.498291 
	C323.807800,1072.135620 338.589539,1079.761475 354.053101,1085.144897 
	C372.793121,1091.668945 392.176086,1096.699707 411.621674,1100.733765 
	C427.667419,1104.062500 444.176849,1105.349365 460.543091,1106.870972 
	C471.234100,1107.865112 482.096283,1108.536133 492.775726,1107.804199 
	C512.047546,1106.483398 531.568665,1106.068848 550.165344,1099.941528 
	C566.092773,1094.693481 580.933044,1087.027588 595.237976,1078.293579 
	C605.392151,1072.093872 615.850403,1066.375854 625.836060,1059.921631 
	C634.958496,1054.025269 643.906189,1047.780762 652.430725,1041.055786 
	C664.514282,1031.522949 676.303955,1021.597961 687.911865,1011.487793 
	C698.948059,1001.875610 709.984314,992.201782 720.281067,981.821533 
	C728.794373,973.239197 736.332947,963.673889 744.112488,954.384338 
	C751.836914,945.160583 759.701782,936.016174 766.829590,926.339417 
	C779.051453,909.746948 789.920532,892.258301 800.317078,874.441650 
	C810.371521,857.211426 822.226013,840.981689 831.562683,823.395630 
	C842.505798,802.783752 850.918701,780.837585 861.647156,760.100403 
	C873.659973,736.880310 886.695862,714.165466 899.946594,691.618591 
	C908.082520,677.774780 917.378845,664.606750 926.305420,651.236328 
	C930.927429,644.313232 935.595215,637.386597 940.741699,630.854980 
	C950.906433,617.954346 961.340393,605.262817 971.813171,592.609009 
	C979.328552,583.528625 986.789490,574.372864 994.806946,565.745300 
	C1007.329224,552.270020 1020.156494,539.068542 1033.134644,526.029785 
	C1042.110962,517.011475 1051.284668,508.146973 1060.882690,499.803162 
	C1068.633667,493.065033 1077.062866,487.088745 1085.351196,480.992310 
	C1094.143799,474.525055 1102.878662,467.925293 1112.086670,462.090424 
	C1123.762695,454.691589 1135.785034,447.817444 1147.851929,441.063416 
	C1160.332275,434.078094 1172.734131,426.820770 1185.738037,420.937103 
	C1200.586060,414.219055 1215.828247,408.169617 1231.325317,403.143188 
	C1248.249023,397.653961 1265.510254,392.959991 1282.910645,389.269257 
	C1295.140503,386.675293 1307.821899,385.903198 1320.351685,385.113098 
	C1333.904419,384.258545 1347.553711,383.544189 1361.090454,384.207428 
	C1375.715820,384.923981 1390.392944,386.565430 1404.803345,389.159210 
	C1420.428223,391.971527 1436.040649,395.499237 1451.156738,400.296448 
	C1464.385498,404.494720 1477.094604,410.510376 1489.703857,416.425323 
	C1500.152222,421.326599 1510.502686,426.653442 1520.212769,432.861145 
	C1535.187622,442.434753 1550.270630,452.069214 1564.038574,463.241821 
	C1580.608887,476.688568 1596.159180,491.451416 1611.563843,506.255585 
	C1622.657959,516.917419 1632.924438,528.457214 1643.325928,539.819763 
	C1665.407593,563.942139 1682.552002,591.414490 1696.230713,620.946594 
	C1702.806030,635.142578 1708.052490,650.033630 1712.860229,664.945312 
	C1717.288452,678.679871 1720.975830,692.734802 1723.770020,706.889404 
	C1726.099121,718.688599 1727.193237,730.806702 1727.872192,742.837830 
	C1728.750122,758.392395 1729.291016,774.020020 1728.814819,789.580566 
	C1728.410889,802.777405 1726.425659,815.931274 1725.016602,829.090942 
	C1721.997925,857.279602 1712.624512,883.945190 1705.918457,911.267822 
	C1701.228760,930.375061 1693.869507,947.872681 1684.803711,964.795654 
	C1677.388062,978.638306 1668.677490,991.888733 1659.505859,1004.658203 
	C1651.679932,1015.554077 1642.756104,1025.739136 1633.626953,1035.598999 
	C1624.763306,1045.172241 1615.380127,1054.340942 1605.577393,1062.949829 
	C1591.876343,1074.982178 1577.968384,1086.854004 1563.406860,1097.807983 
	C1551.328369,1106.894165 1538.350952,1114.839478 1525.425781,1122.722778 
	C1519.215210,1126.510742 1512.079224,1128.755005 1505.650757,1132.231689 
	C1504.126465,1133.056030 1503.016968,1136.010986 1502.982788,1138.007446 
	C1502.748901,1151.670044 1502.853027,1165.338501 1502.847168,1179.005005 
	C1502.843384,1187.906982 1502.945068,1196.810913 1502.794312,1205.710449 
	C1502.696533,1211.486084 1501.941650,1217.257568 1501.984497,1223.027222 
	C1502.083862,1236.440552 1502.571411,1249.850586 1502.716919,1263.263916 
	C1502.759277,1267.158325 1502.020142,1271.055786 1501.928345,1274.958618 
	C1501.850708,1278.261963 1503.415283,1280.062378 1507.081543,1280.037964 
	C1522.414185,1279.935913 1537.760498,1280.385010 1553.077271,1279.882446 
	C1567.683838,1279.403320 1582.260132,1277.994873 1596.849487,1276.992920 
	C1606.520996,1276.328735 1616.215088,1275.891602 1625.858521,1274.941650 
	C1640.626221,1273.486938 1655.530640,1272.564941 1670.056030,1269.756348 
	C1683.181030,1267.218628 1696.414185,1263.689819 1708.627075,1258.366455 
	C1724.723511,1251.350586 1740.412720,1243.015869 1755.270386,1233.651123 
	C1769.829956,1224.474487 1783.226074,1213.424683 1796.944458,1202.950562 
	C1806.618896,1195.563843 1815.990845,1187.780029 1825.476074,1180.146606 
	C1833.983643,1173.299927 1842.037964,1165.784668 1851.071655,1159.726685 
	C1860.063354,1153.696899 1869.897217,1148.854980 1879.634399,1144.044067 
	C1882.817993,1142.471069 1886.855103,1142.088745 1890.504517,1142.077881 
	C1933.503784,1141.949463 1976.503540,1141.991699 2019.503174,1141.998657 
	C2026.943359,1141.999878 2032.073975,1146.979492 2031.985352,1154.331177 
	C2031.704956,1177.584229 2031.380615,1200.837036 2030.989258,1224.088501 
	C2030.738159,1239.009033 2030.305664,1253.926636 2030.013306,1268.846558 
	C2029.645630,1287.598389 2029.359619,1306.351807 2028.997925,1325.103760 
	C2028.697388,1340.690186 2028.320068,1356.275269 2028.009399,1371.861572 
	C2027.655640,1389.613647 2027.364746,1407.367065 2026.996704,1425.118896 
	C2026.704712,1439.205688 2026.285889,1453.289795 2026.017456,1467.376953 
	C2025.634766,1487.461792 2025.362427,1507.548828 2024.997192,1527.634033 
	C2024.701538,1543.887207 2024.328613,1560.138916 2024.007202,1576.391724 
	C2023.662598,1593.810791 2023.347168,1611.230225 2023.002563,1628.649292 
	C2022.680908,1644.902100 2022.331543,1661.154175 2022.006592,1677.406860 
	C2021.665039,1694.492554 2021.338013,1711.578613 2021.004761,1728.664429 
	C2020.671387,1745.750244 2020.392944,1762.837524 2019.980591,1779.921387 
	C2019.789429,1787.844116 2019.713989,1795.799561 2018.898315,1803.668823 
	C2018.080566,1811.558838 2014.107910,1815.713623 2005.228271,1815.867065 
	C1981.735474,1816.273071 1958.228027,1816.227661 1934.732422,1815.916138 
	C1921.887451,1815.745972 1909.014526,1815.096680 1896.226562,1813.894287 
	C1881.131226,1812.475220 1865.671997,1811.877563 1851.806152,1804.857422 
	C1842.580078,1800.186279 1833.323608,1795.139526 1825.208984,1788.813721 
	C1813.887573,1779.988037 1803.973022,1769.640869 1795.624512,1757.638916 
	C1788.259277,1747.050171 1780.205566,1736.884399 1770.761963,1727.773926 
	C1761.426880,1718.768066 1753.973755,1707.835815 1744.857178,1698.573364 
	C1726.166992,1679.584351 1704.748169,1663.883667 1682.014771,1650.139282 
	C1667.349609,1641.272827 1651.958130,1633.606079 1636.875977,1625.431396 
	C1628.062744,1620.654419 1618.306763,1619.405762 1608.599243,1618.005859 
	C1594.772705,1616.011963 1580.956177,1613.943481 1567.111816,1612.083130 
	C1562.399048,1611.449707 1557.619629,1611.237671 1552.862183,1611.028320 
	C1543.477295,1610.614990 1534.074707,1610.527954 1524.701904,1609.945679 
	C1516.956299,1609.464478 1509.507568,1603.526733 1509.845947,1594.609131 
	C1510.139282,1586.875488 1510.436157,1579.232788 1514.309448,1572.427246 
	C1517.893066,1566.131104 1523.686157,1562.489624 1530.996338,1562.048950 
	C1540.231323,1561.492432 1549.524658,1560.667847 1558.730835,1561.146851 
	C1573.263672,1561.903198 1587.776367,1563.378418 1602.239624,1565.050781 
	C1616.589966,1566.710083 1631.092773,1568.023804 1645.113281,1571.278809 
	C1658.113159,1574.296875 1671.166504,1578.450073 1683.116333,1584.306763 
	C1701.275635,1593.206665 1718.878540,1603.415527 1735.977661,1614.237671 
	C1745.665283,1620.369019 1754.094116,1628.590820 1762.691650,1636.314331 
	C1771.572021,1644.291992 1780.232422,1652.553711 1788.512329,1661.150269 
	C1798.948120,1671.985474 1808.872559,1683.312012 1819.069946,1694.378296 
	C1828.455322,1704.563232 1837.965576,1714.633545 1847.305542,1724.859619 
	C1850.886230,1728.779907 1854.897095,1732.583252 1857.391479,1737.159546 
	C1861.964844,1745.549438 1870.297119,1747.032104 1877.933228,1748.752808 
	C1889.449707,1751.347656 1901.282715,1752.912354 1913.065918,1753.860962 
	C1930.815796,1755.290039 1948.638916,1755.809570 1966.995239,1756.744507 
	C1966.995239,1754.286987 1966.995239,1752.847900 1966.995239,1751.408813 
	C1966.995239,1745.408936 1966.952881,1739.408569 1967.002197,1733.409058 
	C1967.322021,1694.489990 1967.618652,1655.570557 1968.010376,1616.652100 
	C1968.261230,1591.732178 1968.662842,1566.813721 1968.994995,1541.894653 
	C1969.329346,1516.808838 1969.661011,1491.723145 1969.995483,1466.637329 
	C1970.327759,1441.718262 1970.664429,1416.799072 1970.994507,1391.880005 
	C1971.331055,1366.460938 1971.659302,1341.041748 1971.995972,1315.622681 
	C1972.326050,1290.703613 1972.612183,1265.783569 1973.014771,1240.865723 
	C1973.239624,1226.944702 1973.665771,1213.026978 1973.989990,1199.107544 
	C1974.028076,1197.472290 1973.995239,1195.835449 1973.995239,1194.369873 
	C1962.781372,1194.928223 1951.969116,1195.484253 1941.155029,1196.000610 
	C1926.818359,1196.685059 1912.302368,1196.224976 1898.217407,1198.473755 
	C1891.132935,1199.604858 1884.342896,1204.993774 1878.296143,1209.606567 
	C1870.589355,1215.485718 1863.873535,1222.646851 1856.543945,1229.041382 
	C1844.249268,1239.767334 1832.039062,1250.613281 1819.320557,1260.819702 
	C1813.736816,1265.300659 1807.028442,1268.398193 1800.763550,1272.007446 
	C1792.991211,1276.485229 1785.185791,1280.908936 1777.328247,1285.234863 
	C1766.385376,1291.259521 1755.648315,1297.753418 1744.326172,1302.966797 
	C1733.339844,1308.025757 1721.627319,1311.480957 1710.410767,1316.072876 
	C1694.686279,1322.510498 1677.852295,1323.745483 1661.437988,1326.820068 
	C1652.619385,1328.472046 1643.471069,1328.419312 1634.462036,1328.986450 
	C1617.544556,1330.051514 1600.631104,1331.284912 1583.696167,1331.934082 
	C1566.123535,1332.607666 1548.526611,1332.943848 1530.941895,1332.893677 
	C1521.459229,1332.866577 1511.979736,1331.721680 1502.004761,1331.047729 
	C1502.004761,1332.800293 1502.004761,1334.423096 1502.004761,1336.046021 
	C1502.004761,1346.712646 1502.035645,1357.379272 1501.999878,1368.045776 
	C1501.674805,1464.964233 1501.389038,1561.882935 1500.949463,1658.800903 
	C1500.883545,1673.336548 1499.199585,1687.586548 1490.048950,1699.854370 
	C1482.369751,1710.149292 1474.442139,1719.989136 1464.540405,1728.496216 
	C1454.823853,1736.844360 1444.843018,1744.601074 1433.661743,1750.640747 
	C1426.098267,1754.726196 1418.107544,1758.366699 1409.893555,1760.817993 
	C1398.517212,1764.213379 1386.758911,1766.336792 1375.143921,1768.913330 
	C1373.712402,1769.230835 1372.156372,1769.002441 1370.658081,1769.002563 
	C1330.991821,1769.005249 1291.325073,1768.898926 1251.659302,1769.027100 
	C1171.573730,1769.285645 1091.488647,1769.670532 1011.403320,1770.005005 
	C931.817993,1770.337280 852.232727,1770.672119 772.647400,1771.004517 
	C692.562073,1771.338867 612.476501,1771.616699 532.391602,1772.029785 
	C495.971832,1772.217529 459.551300,1773.027344 423.135590,1772.807373 
	C410.791656,1772.732788 398.461639,1770.361938 386.125244,1769.040283 
	C379.796875,1768.362183 373.343903,1768.235352 367.176605,1766.843384 
	C361.462891,1765.553711 355.831268,1763.365723 350.555573,1760.774902 
	C337.072540,1754.153442 324.553894,1746.151611 313.249512,1736.003174 
	C297.886658,1722.211426 285.473511,1706.330200 276.561462,1687.857300 
	C272.344818,1679.116821 269.607422,1669.662354 266.218933,1660.524292 
	C266.051086,1660.071655 266.024811,1659.553101 266.002655,1659.062134 
	C265.659943,1651.477417 265.046967,1643.892334 265.038971,1636.307007 
	C264.964722,1565.821289 264.868744,1495.335327 265.026550,1424.849976 
	C265.230835,1333.597778 265.561401,1242.345459 266.154144,1151.095215 
	C266.211884,1142.208130 266.400696,1132.770752 272.087006,1125.041260 
	C274.114655,1122.285156 277.169952,1120.285034 280.095673,1117.631958 
	C259.697235,1107.449951 240.693710,1094.846802 222.236816,1080.738281 
M375.371277,1709.035278 
	C383.119049,1711.021973 390.846985,1714.614990 398.618073,1714.710693 
	C428.526154,1715.079468 458.447418,1714.118164 488.364868,1714.031006 
	C630.271851,1713.617554 772.179077,1713.217651 914.086426,1713.028931 
	C1036.242432,1712.866455 1158.398926,1713.069336 1280.555054,1712.949219 
	C1316.471558,1712.913940 1352.387451,1712.334473 1388.303467,1711.971069 
	C1389.581787,1711.958130 1390.899414,1711.733887 1392.126099,1711.365967 
	C1402.491943,1708.256104 1411.360229,1702.558228 1419.708740,1695.785889 
	C1428.595703,1688.576782 1435.665405,1679.869751 1440.845703,1669.835205 
	C1443.434692,1664.820435 1445.677612,1658.957520 1445.779785,1653.435669 
	C1446.515381,1613.693848 1446.663574,1573.941162 1446.994873,1534.191895 
	C1447.330322,1493.942627 1447.670532,1453.693604 1447.992920,1413.444214 
	C1448.336670,1370.528687 1448.720947,1327.613281 1448.971436,1284.697144 
	C1449.105591,1261.699829 1448.995239,1238.701172 1448.995239,1215.703125 
	C1448.995239,1196.960205 1448.995239,1178.217407 1448.995239,1159.612305 
	C1445.083008,1160.826172 1440.427979,1162.650391 1435.604248,1163.699585 
	C1417.644531,1167.605713 1399.712280,1171.743042 1381.605225,1174.827515 
	C1370.179443,1176.773682 1358.469360,1177.717041 1346.872803,1177.846069 
	C1326.461426,1178.073120 1306.000366,1177.990967 1285.634399,1176.784302 
	C1269.908203,1175.852539 1254.258545,1173.251465 1238.644531,1170.924805 
	C1226.661987,1169.139404 1214.637939,1167.226074 1202.899902,1164.296997 
	C1184.389771,1159.677490 1166.001343,1154.494385 1147.757690,1148.908203 
	C1134.184937,1144.752197 1120.635376,1140.255493 1107.595825,1134.690674 
	C1091.224243,1127.703979 1075.104858,1119.995483 1059.397949,1111.620605 
	C1045.384399,1104.148682 1031.534912,1096.112915 1018.611267,1086.922241 
	C1004.873901,1077.152832 991.683472,1066.397705 979.419128,1054.837158 
	C968.184631,1044.247314 957.731140,1032.599731 948.354004,1020.332214 
	C938.830383,1007.873291 931.677063,993.671448 927.377380,978.484741 
	C925.091125,970.409546 920.821045,962.401245 924.844910,953.220703 
	C928.186157,945.597656 932.609436,939.554138 940.966064,938.122253 
	C950.474548,936.493042 958.373535,940.322632 963.904114,948.065369 
	C966.931641,952.303772 968.497803,957.579163 971.484375,961.855164 
	C978.999329,972.614624 986.145081,983.535828 995.292908,993.244568 
	C1008.363037,1007.116333 1022.611145,1019.490417 1038.384766,1029.806763 
	C1055.291504,1040.864258 1073.142212,1050.521851 1090.859131,1060.285645 
	C1112.654785,1072.297363 1135.974731,1080.962646 1159.548340,1088.568970 
	C1178.762695,1094.768799 1198.634277,1098.925781 1218.200684,1104.041504 
	C1242.452026,1110.382080 1267.259155,1113.382812 1292.103394,1115.863159 
	C1306.034790,1117.254028 1320.093384,1117.455078 1334.103638,1117.920410 
	C1338.506470,1118.066772 1342.935669,1117.277710 1347.358154,1117.007812 
	C1353.606567,1116.626465 1359.901733,1116.674438 1366.103271,1115.927979 
	C1380.943481,1114.141846 1395.780273,1112.252319 1410.545532,1109.938354 
	C1430.497681,1106.811768 1449.535522,1100.427246 1467.628174,1091.601562 
	C1479.255859,1085.929565 1490.510620,1079.411499 1501.564087,1072.668701 
	C1511.053955,1066.879639 1520.303467,1060.603638 1529.137817,1053.859741 
	C1537.555786,1047.433838 1545.372559,1040.207520 1553.317871,1033.179565 
	C1560.561890,1026.772095 1568.027222,1020.541138 1574.661743,1013.537598 
	C1582.609619,1005.147522 1590.122437,996.285706 1597.193726,987.141052 
	C1604.890503,977.187195 1612.616089,967.115967 1618.972046,956.298584 
	C1627.833374,941.217102 1636.010742,925.662903 1643.379028,909.799194 
	C1648.543701,898.679932 1652.457764,886.875732 1655.856445,875.068298 
	C1659.588135,862.103943 1662.491455,848.861389 1665.003418,835.597595 
	C1667.207764,823.957153 1669.323120,812.158081 1669.798706,800.361389 
	C1670.814209,775.177246 1669.821045,750.057007 1665.118042,725.123047 
	C1661.383057,705.320618 1656.243530,685.933411 1649.376587,667.067871 
	C1644.954956,654.919861 1639.880737,642.849487 1633.615845,631.567993 
	C1623.039429,612.523010 1612.105835,593.685181 1598.386230,576.504822 
	C1586.690552,561.859192 1574.757202,547.529175 1561.110718,534.706970 
	C1553.134033,527.212158 1544.988037,519.836731 1536.391357,513.077637 
	C1524.910767,504.050995 1513.468750,494.763916 1501.012085,487.241638 
	C1484.042603,476.994293 1466.331543,467.903809 1448.566162,459.065979 
	C1431.595215,450.623413 1414.249268,442.898132 1394.988037,440.946808 
	C1380.060425,439.434479 1365.187012,437.298798 1350.234497,436.159760 
	C1342.884033,435.599792 1335.384399,436.397705 1327.996216,437.066681 
	C1315.815796,438.169525 1303.643066,439.452728 1291.517578,441.045044 
	C1270.854370,443.758423 1250.846558,449.443970 1231.350708,456.501495 
	C1217.084717,461.665771 1203.167480,468.039062 1189.647095,474.953247 
	C1173.958496,482.976257 1158.647217,491.809570 1143.611084,501.008881 
	C1134.500977,506.582672 1126.208984,513.497681 1117.574951,519.844727 
	C1110.118408,525.326172 1102.320312,530.422119 1095.354614,536.472900 
	C1086.113159,544.500549 1077.489624,553.244690 1068.682983,561.766235 
	C1060.402710,569.778503 1051.965332,577.653442 1044.085938,586.047729 
	C1036.580688,594.043457 1029.408081,602.396729 1022.624390,611.014038 
	C1011.946655,624.577698 1001.207275,638.144531 991.452454,652.367432 
	C982.948486,664.766541 975.451843,677.896301 968.093323,691.029968 
	C960.652893,704.309998 953.872742,717.962524 946.904419,731.503967 
	C937.219910,750.323669 927.693298,769.224670 917.978027,788.028320 
	C910.836121,801.851257 903.351990,815.498474 896.293701,829.363159 
	C889.689941,842.334900 883.823608,855.692444 876.943115,868.510071 
	C869.271667,882.800964 861.080933,896.831909 852.636353,910.683472 
	C844.757874,923.606323 836.429504,936.266479 827.963013,948.815552 
	C820.956848,959.200256 813.483765,969.270996 806.166138,979.443848 
	C804.155090,982.239502 802.061829,984.989441 799.829834,987.610168 
	C793.447571,995.104431 786.999756,1002.543335 780.529358,1009.961853 
	C775.622253,1015.587891 770.830017,1021.332275 765.641663,1026.689819 
	C759.999878,1032.515381 754.021667,1038.021606 748.077637,1043.545898 
	C739.700317,1051.331665 731.489990,1059.330811 722.710938,1066.641602 
	C712.932678,1074.784302 702.718018,1082.422119 692.467834,1089.973633 
	C683.113342,1096.865234 673.829468,1103.979736 663.844788,1109.858643 
	C649.631409,1118.227295 634.957336,1125.858643 620.202515,1133.251099 
	C602.618042,1142.061157 584.297668,1149.078247 565.305542,1154.369263 
	C547.835205,1159.236206 530.178772,1163.272461 512.135376,1164.829468 
	C501.212708,1165.772217 490.140991,1164.888184 479.138885,1165.030029 
	C458.194611,1165.300049 437.341309,1164.218384 416.637665,1160.978149 
	C404.167511,1159.026611 391.527985,1157.629883 379.342468,1154.508545 
	C360.144379,1149.590942 341.264496,1143.431152 322.281372,1137.806519 
	C322.480927,1139.982910 322.993225,1142.842407 322.966187,1145.696777 
	C322.696716,1174.114258 322.276031,1202.530396 322.019470,1230.947998 
	C321.630554,1274.029785 321.241699,1317.112061 321.025757,1360.194946 
	C320.620178,1441.106934 320.337738,1522.019653 320.006653,1602.932007 
	C319.993042,1606.265015 320.068634,1609.599976 319.975372,1612.930298 
	C319.934723,1614.381958 319.386322,1615.824463 319.385773,1617.271240 
	C319.382385,1626.534546 318.384796,1635.964844 319.782074,1645.021240 
	C321.772003,1657.918945 328.491486,1668.900635 336.522369,1679.318481 
	C346.762817,1692.602539 359.402191,1702.293213 375.371277,1709.035278 
M293.937561,1683.550415 
	C301.904053,1693.957031 308.914154,1705.303955 318.031891,1714.578857 
	C338.351013,1735.248169 362.793091,1749.215088 392.100800,1752.242432 
	C405.954437,1753.673462 420.038849,1753.049561 434.018768,1753.052124 
	C747.010620,1753.108276 1060.002441,1753.122925 1372.994263,1753.124023 
	C1375.651245,1753.124023 1378.423218,1753.266357 1380.946533,1752.601807 
	C1398.656128,1747.937500 1416.137573,1742.637451 1431.934448,1732.965942 
	C1454.890625,1718.911133 1472.840576,1700.660400 1481.625732,1674.524170 
	C1485.766602,1662.204468 1484.702393,1649.571655 1484.743042,1636.926025 
	C1485.082520,1531.430786 1485.574585,1425.935913 1486.019287,1320.441040 
	C1486.026733,1318.677002 1486.020264,1316.912964 1486.020264,1315.238281 
	C1491.697632,1315.238281 1496.685181,1315.124146 1501.666016,1315.259033 
	C1518.974121,1315.727173 1536.325195,1317.327637 1553.576904,1316.581665 
	C1587.503174,1315.114502 1621.397217,1312.663696 1655.261841,1310.064697 
	C1697.965576,1306.787354 1737.147827,1292.697266 1772.633789,1268.952148 
	C1806.397339,1246.359619 1840.147095,1223.671631 1869.091064,1194.725342 
	C1879.150024,1184.665771 1891.580688,1179.959717 1906.042847,1179.846924 
	C1934.033569,1179.628662 1962.019897,1178.831421 1990.008423,1178.295044 
	C1991.287720,1178.270630 1992.570801,1178.452881 1994.075684,1178.553711 
	C1991.450562,1377.067261 1988.829468,1575.263428 1986.203735,1773.821655 
	C1984.368530,1773.821655 1982.892212,1773.828857 1981.415894,1773.820435 
	C1953.084473,1773.658936 1924.752686,1773.536865 1896.421997,1773.284912 
	C1892.479370,1773.249878 1888.467285,1772.932495 1884.616211,1772.128540 
	C1869.864990,1769.048950 1857.684570,1760.943237 1846.219727,1751.676147 
	C1831.603271,1739.861816 1820.023071,1725.201172 1808.710083,1710.393555 
	C1790.546021,1686.619019 1771.150635,1663.879028 1747.629395,1645.357544 
	C1730.680786,1632.011597 1712.314453,1620.432251 1694.312988,1608.467407 
	C1677.420044,1597.239136 1658.852539,1589.510620 1639.240112,1584.459961 
	C1617.728760,1578.920410 1595.770630,1576.054199 1573.610596,1575.143311 
	C1561.134521,1574.630615 1548.617554,1574.994019 1536.121216,1575.146240 
	C1529.542969,1575.226318 1524.931763,1579.497559 1524.618408,1585.313232 
	C1524.307495,1591.080933 1528.488892,1595.862549 1534.855469,1596.838135 
	C1536.653931,1597.113647 1538.511597,1597.004272 1540.342285,1597.067017 
	C1559.305176,1597.716797 1578.331909,1597.610352 1597.214722,1599.206787 
	C1620.510010,1601.176392 1643.375000,1606.103638 1664.353394,1616.895508 
	C1676.721313,1623.257568 1688.416260,1630.950806 1700.288452,1638.249146 
	C1732.858398,1658.271118 1760.142578,1684.099854 1783.803711,1714.008789 
	C1795.153931,1728.356079 1806.592041,1742.708984 1818.991699,1756.134521 
	C1841.236328,1780.219238 1869.093628,1793.741089 1901.873779,1796.254883 
	C1909.924805,1796.872192 1918.115601,1795.361084 1926.243286,1795.345947 
	C1946.907837,1795.307251 1967.572998,1795.595215 1988.238159,1795.666382 
	C1991.886108,1795.678955 1995.609375,1795.656982 1999.166382,1794.970337 
	C2004.114258,1794.015137 2006.972046,1790.543091 2007.435547,1785.559326 
	C2007.938599,1780.149902 2008.182739,1774.703491 2008.262085,1769.269287 
	C2009.484375,1685.618042 2010.715210,1601.967041 2011.831787,1518.314331 
	C2012.725830,1451.325073 2013.493896,1384.334106 2014.270264,1317.343384 
	C2014.843872,1267.856567 2015.389038,1218.369141 2015.825073,1168.881104 
	C2015.899170,1160.476440 2011.649048,1156.441040 2003.127808,1156.266113 
	C1998.300171,1156.166992 1993.465454,1156.480591 1988.633057,1156.528687 
	C1962.477051,1156.789062 1936.320435,1156.993042 1910.164673,1157.278564 
	C1889.841675,1157.500488 1871.414062,1162.987427 1856.118408,1177.022461 
	C1848.507812,1184.005737 1841.352783,1191.594238 1833.159912,1197.813354 
	C1811.690430,1214.111328 1789.901489,1229.999268 1767.985352,1245.695557 
	C1738.875122,1266.544189 1706.771362,1280.936279 1671.238892,1285.922119 
	C1646.220825,1289.432739 1620.905762,1290.927979 1595.689453,1292.889038 
	C1578.423096,1294.231812 1561.108521,1295.226807 1543.797729,1295.651489 
	C1524.713013,1296.119751 1505.607910,1295.758423 1486.066528,1295.758423 
	C1486.066528,1292.896729 1486.057861,1291.097168 1486.067749,1289.297485 
	C1486.363647,1235.800903 1486.708496,1182.304443 1486.863892,1128.807495 
	C1486.875610,1124.775757 1488.034302,1122.732056 1491.739380,1120.917847 
	C1549.195068,1092.786133 1598.565918,1054.399536 1637.115845,1003.127502 
	C1701.869507,917.004272 1726.127197,820.631104 1705.590332,714.482910 
	C1688.904541,628.239624 1644.762817,557.213745 1579.432617,499.173798 
	C1531.708862,456.775696 1476.853271,426.790009 1415.953247,407.889099 
	C1403.437012,404.004608 1390.769409,399.351562 1377.889648,398.195679 
	C1359.566895,396.551422 1340.929688,396.917664 1322.521729,398.016052 
	C1279.547485,400.580200 1238.797974,412.419159 1199.599854,429.887360 
	C1144.518799,454.433594 1096.421875,489.219849 1052.786377,530.447266 
	C1001.859375,578.563721 959.069397,633.319031 922.050049,692.624634 
	C904.900208,720.099060 887.654358,747.553467 874.782288,777.475525 
	C834.983276,869.991821 780.565918,952.625732 707.386108,1022.275574 
	C667.153015,1060.567871 622.595459,1092.611572 570.171509,1112.444336 
	C550.334290,1119.948975 529.917236,1125.583984 508.556519,1125.840210 
	C490.616302,1126.055542 472.635010,1125.674927 454.724854,1124.641357 
	C441.296478,1123.866577 427.865723,1122.157959 414.585327,1119.962158 
	C353.040985,1109.786133 297.355804,1085.617554 247.517838,1048.248657 
	C185.554153,1001.787964 141.012924,942.130188 113.936783,869.526428 
	C102.363174,838.492188 94.718246,806.441040 92.368027,773.440613 
	C90.535637,747.711304 90.428055,721.848877 89.965729,696.038208 
	C89.814682,687.605225 90.289482,679.041199 91.629364,670.722534 
	C96.959908,637.627808 107.470497,606.181641 123.664139,576.797546 
	C165.927277,500.109192 230.255051,449.375061 311.392578,419.111450 
	C378.427002,394.108124 447.678558,388.115814 518.360474,397.899475 
	C589.209473,407.706268 654.017944,433.064545 712.010620,475.041901 
	C769.133057,516.389343 812.624939,568.809753 838.990601,634.697571 
	C842.503723,643.476868 845.283569,652.548828 848.434448,661.474121 
	C850.825623,668.247437 856.278931,671.439514 862.342651,669.674133 
	C867.982361,668.032166 870.829041,662.303711 869.298340,655.598145 
	C868.966064,654.142578 868.534363,652.706482 868.086121,651.281006 
	C850.688965,595.957825 821.149719,547.863831 781.075806,506.189056 
	C736.022888,459.336517 682.593872,425.162781 621.969177,401.985046 
	C577.003784,384.794159 530.445923,374.960022 482.466064,372.265411 
	C441.538788,369.966858 400.917175,373.018646 360.830688,381.946594 
	C290.055389,397.709503 226.537369,428.067902 173.419128,477.914093 
	C101.718155,545.198425 64.642036,627.917603 66.167198,726.886719 
	C66.379135,740.639160 68.392273,754.380737 69.895241,768.091858 
	C71.436081,782.148315 72.665565,796.293518 75.255821,810.171387 
	C90.019302,889.269531 124.985909,958.310608 179.964615,1017.041687 
	C229.100220,1069.530884 288.187012,1106.473022 356.575043,1128.597290 
	C399.442627,1142.465454 443.644958,1146.848267 488.429474,1148.199341 
	C525.513550,1149.318237 560.389771,1141.078491 594.044250,1126.402222 
	C641.801453,1105.575928 683.116150,1075.183228 720.761169,1039.665894 
	C791.570435,972.858948 845.397461,893.941833 886.081726,805.788025 
	C892.209106,792.511353 897.637268,778.863403 904.521362,765.993042 
	C935.150391,708.730408 970.627258,654.662720 1012.527039,604.937988 
	C1050.504517,559.868164 1092.778076,519.447449 1141.999878,486.728790 
	C1203.050537,446.147247 1269.192871,420.250183 1343.418335,418.776611 
	C1355.839233,418.530029 1368.709717,418.272491 1380.666870,421.053711 
	C1450.691772,437.341797 1513.260254,468.860992 1566.674805,517.160156 
	C1641.426392,584.752869 1685.098511,667.945068 1690.247559,769.775879 
	C1692.655884,817.403137 1684.615723,863.352051 1666.858398,907.469055 
	C1638.968628,976.759338 1592.874268,1031.467896 1531.107544,1072.927856 
	C1516.003662,1083.066040 1499.386963,1090.953491 1483.446533,1099.840942 
	C1464.028198,1110.667358 1443.560913,1118.942139 1421.903198,1123.944946 
	C1366.778687,1136.678589 1311.218994,1135.843140 1255.539673,1128.472534 
	C1217.689453,1123.462036 1180.596558,1114.994141 1144.384033,1102.848999 
	C1100.480591,1088.124390 1058.583496,1069.253784 1020.948669,1041.863892 
	C1000.891357,1027.266479 982.604065,1010.762634 969.372864,989.482178 
	C965.103271,982.615234 961.849792,975.079834 958.522766,967.674377 
	C955.523010,960.997437 950.378723,957.868896 944.432251,959.822571 
	C938.268982,961.847595 935.729370,967.683899 937.882935,974.910828 
	C938.119629,975.705139 938.370483,976.511658 938.745544,977.245728 
	C943.348145,986.255005 947.167053,995.790405 952.742126,1004.154236 
	C972.060242,1033.135254 998.713684,1054.400146 1027.771851,1072.803223 
	C1068.830933,1098.806641 1113.340576,1117.059448 1159.902344,1130.512573 
	C1209.359497,1144.802124 1259.740601,1153.874146 1311.267334,1154.883911 
	C1334.871216,1155.346558 1358.587891,1154.538086 1382.123291,1152.668945 
	C1403.280518,1150.988770 1424.333130,1147.411865 1444.695435,1140.913452 
	C1451.391113,1138.776733 1457.959473,1136.240601 1464.977051,1133.748169 
	C1464.977051,1136.108765 1464.983398,1137.768555 1464.976196,1139.428223 
	C1464.281616,1300.920654 1463.587402,1462.413086 1462.885254,1623.905518 
	C1462.853516,1631.229980 1462.188843,1638.601318 1462.800171,1645.868286 
	C1463.889160,1658.815186 1461.531494,1670.932861 1454.447388,1681.661865 
	C1434.007324,1712.618774 1404.227051,1728.359253 1367.939941,1730.694336 
	C1343.375977,1732.274902 1318.627197,1730.980347 1293.961060,1730.979858 
	C1003.300842,1730.973633 712.640625,1730.974243 421.980438,1730.940308 
	C412.166107,1730.939209 402.178070,1731.704468 392.570099,1730.201172 
	C363.734680,1725.689209 341.041687,1710.277344 323.062500,1687.804321 
	C310.191742,1671.716431 301.728729,1653.593018 301.889618,1632.510620 
	C303.110596,1472.523804 304.446289,1312.537964 305.744019,1152.551758 
	C305.820618,1143.110840 301.851868,1137.563965 294.942444,1137.418701 
	C287.953400,1137.271851 283.971924,1142.519409 283.879608,1152.169800 
	C283.351990,1207.331177 282.787292,1262.492432 282.346283,1317.654663 
	C281.496216,1423.979980 280.718079,1530.305786 279.923096,1636.631592 
	C279.895721,1640.289795 279.089355,1644.265015 280.219818,1647.551147 
	C284.315643,1659.457642 289.083252,1671.133179 293.937561,1683.550415 
z"/>
<path fill="#000000" opacity="1.000000" stroke="none" 
	d="
M374.972412,1709.015625 
	C359.402191,1702.293213 346.762817,1692.602539 336.522369,1679.318481 
	C328.491486,1668.900635 321.772003,1657.918945 319.782074,1645.021240 
	C318.384796,1635.964844 319.382385,1626.534546 319.385773,1617.271240 
	C319.386322,1615.824463 319.934723,1614.381958 319.975372,1612.930298 
	C320.068634,1609.599976 319.993042,1606.265015 320.006653,1602.932007 
	C320.337738,1522.019653 320.620178,1441.106934 321.025757,1360.194946 
	C321.241699,1317.112061 321.630554,1274.029785 322.019470,1230.947998 
	C322.276031,1202.530396 322.696716,1174.114258 322.966187,1145.696777 
	C322.993225,1142.842407 322.480927,1139.982910 322.281372,1137.806519 
	C341.264496,1143.431152 360.144379,1149.590942 379.342468,1154.508545 
	C391.527985,1157.629883 404.167511,1159.026611 416.637665,1160.978149 
	C437.341309,1164.218384 458.194611,1165.300049 479.138885,1165.030029 
	C490.140991,1164.888184 501.212708,1165.772217 512.135376,1164.829468 
	C530.178772,1163.272461 547.835205,1159.236206 565.305542,1154.369263 
	C584.297668,1149.078247 602.618042,1142.061157 620.202515,1133.251099 
	C634.957336,1125.858643 649.631409,1118.227295 663.844788,1109.858643 
	C673.829468,1103.979736 683.113342,1096.865234 692.467834,1089.973633 
	C702.718018,1082.422119 712.932678,1074.784302 722.710938,1066.641602 
	C731.489990,1059.330811 739.700317,1051.331665 748.077637,1043.545898 
	C754.021667,1038.021606 759.999878,1032.515381 765.641663,1026.689819 
	C770.830017,1021.332275 775.622253,1015.587891 780.529358,1009.961853 
	C786.999756,1002.543335 793.447571,995.104431 799.829834,987.610168 
	C802.061829,984.989441 804.155090,982.239502 806.166138,979.443848 
	C813.483765,969.270996 820.956848,959.200256 827.963013,948.815552 
	C836.429504,936.266479 844.757874,923.606323 852.636353,910.683472 
	C861.080933,896.831909 869.271667,882.800964 876.943115,868.510071 
	C883.823608,855.692444 889.689941,842.334900 896.293701,829.363159 
	C903.351990,815.498474 910.836121,801.851257 917.978027,788.028320 
	C927.693298,769.224670 937.219910,750.323669 946.904419,731.503967 
	C953.872742,717.962524 960.652893,704.309998 968.093323,691.029968 
	C975.451843,677.896301 982.948486,664.766541 991.452454,652.367432 
	C1001.207275,638.144531 1011.946655,624.577698 1022.624390,611.014038 
	C1029.408081,602.396729 1036.580688,594.043457 1044.085938,586.047729 
	C1051.965332,577.653442 1060.402710,569.778503 1068.682983,561.766235 
	C1077.489624,553.244690 1086.113159,544.500549 1095.354614,536.472900 
	C1102.320312,530.422119 1110.118408,525.326172 1117.574951,519.844727 
	C1126.208984,513.497681 1134.500977,506.582672 1143.611084,501.008881 
	C1158.647217,491.809570 1173.958496,482.976257 1189.647095,474.953247 
	C1203.167480,468.039062 1217.084717,461.665771 1231.350708,456.501495 
	C1250.846558,449.443970 1270.854370,443.758423 1291.517578,441.045044 
	C1303.643066,439.452728 1315.815796,438.169525 1327.996216,437.066681 
	C1335.384399,436.397705 1342.884033,435.599792 1350.234497,436.159760 
	C1365.187012,437.298798 1380.060425,439.434479 1394.988037,440.946808 
	C1414.249268,442.898132 1431.595215,450.623413 1448.566162,459.065979 
	C1466.331543,467.903809 1484.042603,476.994293 1501.012085,487.241638 
	C1513.468750,494.763916 1524.910767,504.050995 1536.391357,513.077637 
	C1544.988037,519.836731 1553.134033,527.212158 1561.110718,534.706970 
	C1574.757202,547.529175 1586.690552,561.859192 1598.386230,576.504822 
	C1612.105835,593.685181 1623.039429,612.523010 1633.615845,631.567993 
	C1639.880737,642.849487 1644.954956,654.919861 1649.376587,667.067871 
	C1656.243530,685.933411 1661.383057,705.320618 1665.118042,725.123047 
	C1669.821045,750.057007 1670.814209,775.177246 1669.798706,800.361389 
	C1669.323120,812.158081 1667.207764,823.957153 1665.003418,835.597595 
	C1662.491455,848.861389 1659.588135,862.103943 1655.856445,875.068298 
	C1652.457764,886.875732 1648.543701,898.679932 1643.379028,909.799194 
	C1636.010742,925.662903 1627.833374,941.217102 1618.972046,956.298584 
	C1612.616089,967.115967 1604.890503,977.187195 1597.193726,987.141052 
	C1590.122437,996.285706 1582.609619,1005.147522 1574.661743,1013.537598 
	C1568.027222,1020.541138 1560.561890,1026.772095 1553.317871,1033.179565 
	C1545.372559,1040.207520 1537.555786,1047.433838 1529.137817,1053.859741 
	C1520.303467,1060.603638 1511.053955,1066.879639 1501.564087,1072.668701 
	C1490.510620,1079.411499 1479.255859,1085.929565 1467.628174,1091.601562 
	C1449.535522,1100.427246 1430.497681,1106.811768 1410.545532,1109.938354 
	C1395.780273,1112.252319 1380.943481,1114.141846 1366.103271,1115.927979 
	C1359.901733,1116.674438 1353.606567,1116.626465 1347.358154,1117.007812 
	C1342.935669,1117.277710 1338.506470,1118.066772 1334.103638,1117.920410 
	C1320.093384,1117.455078 1306.034790,1117.254028 1292.103394,1115.863159 
	C1267.259155,1113.382812 1242.452026,1110.382080 1218.200684,1104.041504 
	C1198.634277,1098.925781 1178.762695,1094.768799 1159.548340,1088.568970 
	C1135.974731,1080.962646 1112.654785,1072.297363 1090.859131,1060.285645 
	C1073.142212,1050.521851 1055.291504,1040.864258 1038.384766,1029.806763 
	C1022.611145,1019.490417 1008.363037,1007.116333 995.292908,993.244568 
	C986.145081,983.535828 978.999329,972.614624 971.484375,961.855164 
	C968.497803,957.579163 966.931641,952.303772 963.904114,948.065369 
	C958.373535,940.322632 950.474548,936.493042 940.966064,938.122253 
	C932.609436,939.554138 928.186157,945.597656 924.844910,953.220703 
	C920.821045,962.401245 925.091125,970.409546 927.377380,978.484741 
	C931.677063,993.671448 938.830383,1007.873291 948.354004,1020.332214 
	C957.731140,1032.599731 968.184631,1044.247314 979.419128,1054.837158 
	C991.683472,1066.397705 1004.873901,1077.152832 1018.611267,1086.922241 
	C1031.534912,1096.112915 1045.384399,1104.148682 1059.397949,1111.620605 
	C1075.104858,1119.995483 1091.224243,1127.703979 1107.595825,1134.690674 
	C1120.635376,1140.255493 1134.184937,1144.752197 1147.757690,1148.908203 
	C1166.001343,1154.494385 1184.389771,1159.677490 1202.899902,1164.296997 
	C1214.637939,1167.226074 1226.661987,1169.139404 1238.644531,1170.924805 
	C1254.258545,1173.251465 1269.908203,1175.852539 1285.634399,1176.784302 
	C1306.000366,1177.990967 1326.461426,1178.073120 1346.872803,1177.846069 
	C1358.469360,1177.717041 1370.179443,1176.773682 1381.605225,1174.827515 
	C1399.712280,1171.743042 1417.644531,1167.605713 1435.604248,1163.699585 
	C1440.427979,1162.650391 1445.083008,1160.826172 1448.995239,1159.612305 
	C1448.995239,1178.217407 1448.995239,1196.960205 1448.995239,1215.703125 
	C1448.995239,1238.701172 1449.105591,1261.699829 1448.971436,1284.697144 
	C1448.720947,1327.613281 1448.336670,1370.528687 1447.992920,1413.444214 
	C1447.670532,1453.693604 1447.330322,1493.942627 1446.994873,1534.191895 
	C1446.663574,1573.941162 1446.515381,1613.693848 1445.779785,1653.435669 
	C1445.677612,1658.957520 1443.434692,1664.820435 1440.845703,1669.835205 
	C1435.665405,1679.869751 1428.595703,1688.576782 1419.708740,1695.785889 
	C1411.360229,1702.558228 1402.491943,1708.256104 1392.126099,1711.365967 
	C1390.899414,1711.733887 1389.581787,1711.958130 1388.303467,1711.971069 
	C1352.387451,1712.334473 1316.471558,1712.913940 1280.555054,1712.949219 
	C1158.398926,1713.069336 1036.242432,1712.866455 914.086426,1713.028931 
	C772.179077,1713.217651 630.271851,1713.617554 488.364868,1714.031006 
	C458.447418,1714.118164 428.526154,1715.079468 398.618073,1714.710693 
	C390.846985,1714.614990 383.119049,1711.021973 374.972412,1709.015625 
M910.006226,1441.509888 
	C909.672913,1434.262695 909.140686,1427.018066 909.050171,1419.767944 
	C908.892212,1407.112915 908.465942,1394.423584 909.183472,1381.807495 
	C909.721375,1372.349976 904.553284,1367.377563 895.189270,1367.957153 
	C886.953979,1368.466919 878.695740,1368.593750 870.454163,1369.017700 
	C864.983887,1369.298950 859.988708,1375.882568 861.013184,1381.129883 
	C861.446411,1383.348999 861.976807,1385.612427 861.945923,1387.848755 
	C861.698425,1405.755493 861.222656,1423.659424 861.015991,1441.566528 
	C860.607605,1476.957886 860.577820,1512.356323 859.806091,1547.738892 
	C859.627686,1555.923584 864.493225,1561.815918 872.974854,1561.099243 
	C881.851868,1560.349243 890.798340,1560.462036 899.701599,1559.967041 
	C906.943848,1559.564331 909.918274,1557.046753 910.933838,1550.132568 
	C911.458679,1546.558716 911.074280,1542.841064 910.995605,1539.190796 
	C910.688660,1524.948364 910.179199,1510.708496 910.046631,1496.464844 
	C909.879211,1478.480225 910.006226,1460.492676 910.006226,1441.509888 
M678.004150,1420.500000 
	C678.004150,1409.503540 678.063965,1398.506470 677.971985,1387.510742 
	C677.939331,1383.609741 678.315491,1379.453369 677.126160,1375.871338 
	C675.205933,1370.088013 670.601624,1367.607910 664.245300,1367.912109 
	C656.764832,1368.269775 649.249573,1368.159668 641.757812,1367.949829 
	C634.266907,1367.739868 629.929565,1374.307495 631.011597,1380.992188 
	C631.426880,1383.557617 631.982727,1386.154785 631.945129,1388.729858 
	C631.712646,1404.645508 631.200500,1420.557617 631.021667,1436.473511 
	C630.606934,1473.380127 630.337585,1510.288330 629.964233,1547.195312 
	C629.949707,1548.631714 629.536011,1550.078857 629.197449,1551.494507 
	C627.361816,1559.169556 629.769714,1565.592041 636.613525,1568.833618 
	C638.886230,1569.910034 642.097900,1569.004028 644.880310,1569.004150 
	C652.377930,1569.004150 659.892578,1568.693970 667.367493,1569.105591 
	C672.999023,1569.415649 678.585693,1563.636963 678.078979,1558.372925 
	C677.700012,1554.436035 678.004211,1550.433350 678.004211,1546.459961 
	C678.004211,1504.806641 678.004150,1463.153320 678.004150,1420.500000 
M1082.030518,1515.830811 
	C1082.018433,1526.656128 1081.968018,1537.481689 1082.008179,1548.306885 
	C1082.032837,1554.956177 1086.982178,1561.824829 1092.175659,1561.943604 
	C1101.663818,1562.160767 1111.162720,1562.125244 1120.652832,1561.955566 
	C1125.504761,1561.868774 1129.551880,1558.407837 1129.970947,1554.314087 
	C1130.438721,1549.745850 1130.882446,1545.157471 1130.969849,1540.570801 
	C1131.383789,1518.835327 1131.616943,1497.096313 1132.034302,1475.360840 
	C1132.192505,1467.110840 1132.828735,1458.869751 1132.975220,1450.619751 
	C1133.393433,1427.052124 1133.743896,1403.482788 1133.962769,1379.912720 
	C1134.029907,1372.678101 1127.146851,1366.263184 1120.352417,1366.917480 
	C1113.307251,1367.595825 1106.205933,1367.767578 1099.123657,1367.963623 
	C1092.278198,1368.153198 1086.406494,1373.527100 1086.015991,1380.444702 
	C1085.588257,1388.019897 1085.246582,1395.601929 1085.012207,1403.185669 
	C1084.613159,1416.093628 1084.242310,1429.003662 1084.012939,1441.915527 
	C1083.612061,1464.484131 1083.336914,1487.054810 1082.975952,1509.624268 
	C1082.947266,1511.417725 1082.659302,1513.207153 1082.030518,1515.830811 
z"/>
<path fill="#161616" opacity="1.000000" stroke="none" 
	d="
M293.767456,1683.223145 
	C289.083252,1671.133179 284.315643,1659.457642 280.219818,1647.551147 
	C279.089355,1644.265015 279.895721,1640.289795 279.923096,1636.631592 
	C280.718079,1530.305786 281.496216,1423.979980 282.346283,1317.654663 
	C282.787292,1262.492432 283.351990,1207.331177 283.879608,1152.169800 
	C283.971924,1142.519409 287.953400,1137.271851 294.942444,1137.418701 
	C301.851868,1137.563965 305.820618,1143.110840 305.744019,1152.551758 
	C304.446289,1312.537964 303.110596,1472.523804 301.889618,1632.510620 
	C301.728729,1653.593018 310.191742,1671.716431 323.062500,1687.804321 
	C341.041687,1710.277344 363.734680,1725.689209 392.570099,1730.201172 
	C402.178070,1731.704468 412.166107,1730.939209 421.980438,1730.940308 
	C712.640625,1730.974243 1003.300842,1730.973633 1293.961060,1730.979858 
	C1318.627197,1730.980347 1343.375977,1732.274902 1367.939941,1730.694336 
	C1404.227051,1728.359253 1434.007324,1712.618774 1454.447388,1681.661865 
	C1461.531494,1670.932861 1463.889160,1658.815186 1462.800171,1645.868286 
	C1462.188843,1638.601318 1462.853516,1631.229980 1462.885254,1623.905518 
	C1463.587402,1462.413086 1464.281616,1300.920654 1464.976196,1139.428223 
	C1464.983398,1137.768555 1464.977051,1136.108765 1464.977051,1133.748169 
	C1457.959473,1136.240601 1451.391113,1138.776733 1444.695435,1140.913452 
	C1424.333130,1147.411865 1403.280518,1150.988770 1382.123291,1152.668945 
	C1358.587891,1154.538086 1334.871216,1155.346558 1311.267334,1154.883911 
	C1259.740601,1153.874146 1209.359497,1144.802124 1159.902344,1130.512573 
	C1113.340576,1117.059448 1068.830933,1098.806641 1027.771851,1072.803223 
	C998.713684,1054.400146 972.060242,1033.135254 952.742126,1004.154236 
	C947.167053,995.790405 943.348145,986.255005 938.745544,977.245728 
	C938.370483,976.511658 938.119629,975.705139 937.882935,974.910828 
	C935.729370,967.683899 938.268982,961.847595 944.432251,959.822571 
	C950.378723,957.868896 955.523010,960.997437 958.522766,967.674377 
	C961.849792,975.079834 965.103271,982.615234 969.372864,989.482178 
	C982.604065,1010.762634 1000.891357,1027.266479 1020.948669,1041.863892 
	C1058.583496,1069.253784 1100.480591,1088.124390 1144.384033,1102.848999 
	C1180.596558,1114.994141 1217.689453,1123.462036 1255.539673,1128.472534 
	C1311.218994,1135.843140 1366.778687,1136.678589 1421.903198,1123.944946 
	C1443.560913,1118.942139 1464.028198,1110.667358 1483.446533,1099.840942 
	C1499.386963,1090.953491 1516.003662,1083.066040 1531.107544,1072.927856 
	C1592.874268,1031.467896 1638.968628,976.759338 1666.858398,907.469055 
	C1684.615723,863.352051 1692.655884,817.403137 1690.247559,769.775879 
	C1685.098511,667.945068 1641.426392,584.752869 1566.674805,517.160156 
	C1513.260254,468.860992 1450.691772,437.341797 1380.666870,421.053711 
	C1368.709717,418.272491 1355.839233,418.530029 1343.418335,418.776611 
	C1269.192871,420.250183 1203.050537,446.147247 1141.999878,486.728790 
	C1092.778076,519.447449 1050.504517,559.868164 1012.527039,604.937988 
	C970.627258,654.662720 935.150391,708.730408 904.521362,765.993042 
	C897.637268,778.863403 892.209106,792.511353 886.081726,805.788025 
	C845.397461,893.941833 791.570435,972.858948 720.761169,1039.665894 
	C683.116150,1075.183228 641.801453,1105.575928 594.044250,1126.402222 
	C560.389771,1141.078491 525.513550,1149.318237 488.429474,1148.199341 
	C443.644958,1146.848267 399.442627,1142.465454 356.575043,1128.597290 
	C288.187012,1106.473022 229.100220,1069.530884 179.964615,1017.041687 
	C124.985909,958.310608 90.019302,889.269531 75.255821,810.171387 
	C72.665565,796.293518 71.436081,782.148315 69.895241,768.091858 
	C68.392273,754.380737 66.379135,740.639160 66.167198,726.886719 
	C64.642036,627.917603 101.718155,545.198425 173.419128,477.914093 
	C226.537369,428.067902 290.055389,397.709503 360.830688,381.946594 
	C400.917175,373.018646 441.538788,369.966858 482.466064,372.265411 
	C530.445923,374.960022 577.003784,384.794159 621.969177,401.985046 
	C682.593872,425.162781 736.022888,459.336517 781.075806,506.189056 
	C821.149719,547.863831 850.688965,595.957825 868.086121,651.281006 
	C868.534363,652.706482 868.966064,654.142578 869.298340,655.598145 
	C870.829041,662.303711 867.982361,668.032166 862.342651,669.674133 
	C856.278931,671.439514 850.825623,668.247437 848.434448,661.474121 
	C845.283569,652.548828 842.503723,643.476868 838.990601,634.697571 
	C812.624939,568.809753 769.133057,516.389343 712.010620,475.041901 
	C654.017944,433.064545 589.209473,407.706268 518.360474,397.899475 
	C447.678558,388.115814 378.427002,394.108124 311.392578,419.111450 
	C230.255051,449.375061 165.927277,500.109192 123.664139,576.797546 
	C107.470497,606.181641 96.959908,637.627808 91.629364,670.722534 
	C90.289482,679.041199 89.814682,687.605225 89.965729,696.038208 
	C90.428055,721.848877 90.535637,747.711304 92.368027,773.440613 
	C94.718246,806.441040 102.363174,838.492188 113.936783,869.526428 
	C141.012924,942.130188 185.554153,1001.787964 247.517838,1048.248657 
	C297.355804,1085.617554 353.040985,1109.786133 414.585327,1119.962158 
	C427.865723,1122.157959 441.296478,1123.866577 454.724854,1124.641357 
	C472.635010,1125.674927 490.616302,1126.055542 508.556519,1125.840210 
	C529.917236,1125.583984 550.334290,1119.948975 570.171509,1112.444336 
	C622.595459,1092.611572 667.153015,1060.567871 707.386108,1022.275574 
	C780.565918,952.625732 834.983276,869.991821 874.782288,777.475525 
	C887.654358,747.553467 904.900208,720.099060 922.050049,692.624634 
	C959.069397,633.319031 1001.859375,578.563721 1052.786377,530.447266 
	C1096.421875,489.219849 1144.518799,454.433594 1199.599854,429.887360 
	C1238.797974,412.419159 1279.547485,400.580200 1322.521729,398.016052 
	C1340.929688,396.917664 1359.566895,396.551422 1377.889648,398.195679 
	C1390.769409,399.351562 1403.437012,404.004608 1415.953247,407.889099 
	C1476.853271,426.790009 1531.708862,456.775696 1579.432617,499.173798 
	C1644.762817,557.213745 1688.904541,628.239624 1705.590332,714.482910 
	C1726.127197,820.631104 1701.869507,917.004272 1637.115845,1003.127502 
	C1598.565918,1054.399536 1549.195068,1092.786133 1491.739380,1120.917847 
	C1488.034302,1122.732056 1486.875610,1124.775757 1486.863892,1128.807495 
	C1486.708496,1182.304443 1486.363647,1235.800903 1486.067749,1289.297485 
	C1486.057861,1291.097168 1486.066528,1292.896729 1486.066528,1295.758423 
	C1505.607910,1295.758423 1524.713013,1296.119751 1543.797729,1295.651489 
	C1561.108521,1295.226807 1578.423096,1294.231812 1595.689453,1292.889038 
	C1620.905762,1290.927979 1646.220825,1289.432739 1671.238892,1285.922119 
	C1706.771362,1280.936279 1738.875122,1266.544189 1767.985352,1245.695557 
	C1789.901489,1229.999268 1811.690430,1214.111328 1833.159912,1197.813354 
	C1841.352783,1191.594238 1848.507812,1184.005737 1856.118408,1177.022461 
	C1871.414062,1162.987427 1889.841675,1157.500488 1910.164673,1157.278564 
	C1936.320435,1156.993042 1962.477051,1156.789062 1988.633057,1156.528687 
	C1993.465454,1156.480591 1998.300171,1156.166992 2003.127808,1156.266113 
	C2011.649048,1156.441040 2015.899170,1160.476440 2015.825073,1168.881104 
	C2015.389038,1218.369141 2014.843872,1267.856567 2014.270264,1317.343384 
	C2013.493896,1384.334106 2012.725830,1451.325073 2011.831787,1518.314331 
	C2010.715210,1601.967041 2009.484375,1685.618042 2008.262085,1769.269287 
	C2008.182739,1774.703491 2007.938599,1780.149902 2007.435547,1785.559326 
	C2006.972046,1790.543091 2004.114258,1794.015137 1999.166382,1794.970337 
	C1995.609375,1795.656982 1991.886108,1795.678955 1988.238159,1795.666382 
	C1967.572998,1795.595215 1946.907837,1795.307251 1926.243286,1795.345947 
	C1918.115601,1795.361084 1909.924805,1796.872192 1901.873779,1796.254883 
	C1869.093628,1793.741089 1841.236328,1780.219238 1818.991699,1756.134521 
	C1806.592041,1742.708984 1795.153931,1728.356079 1783.803711,1714.008789 
	C1760.142578,1684.099854 1732.858398,1658.271118 1700.288452,1638.249146 
	C1688.416260,1630.950806 1676.721313,1623.257568 1664.353394,1616.895508 
	C1643.375000,1606.103638 1620.510010,1601.176392 1597.214722,1599.206787 
	C1578.331909,1597.610352 1559.305176,1597.716797 1540.342285,1597.067017 
	C1538.511597,1597.004272 1536.653931,1597.113647 1534.855469,1596.838135 
	C1528.488892,1595.862549 1524.307495,1591.080933 1524.618408,1585.313232 
	C1524.931763,1579.497559 1529.542969,1575.226318 1536.121216,1575.146240 
	C1548.617554,1574.994019 1561.134521,1574.630615 1573.610596,1575.143311 
	C1595.770630,1576.054199 1617.728760,1578.920410 1639.240112,1584.459961 
	C1658.852539,1589.510620 1677.420044,1597.239136 1694.312988,1608.467407 
	C1712.314453,1620.432251 1730.680786,1632.011597 1747.629395,1645.357544 
	C1771.150635,1663.879028 1790.546021,1686.619019 1808.710083,1710.393555 
	C1820.023071,1725.201172 1831.603271,1739.861816 1846.219727,1751.676147 
	C1857.684570,1760.943237 1869.864990,1769.048950 1884.616211,1772.128540 
	C1888.467285,1772.932495 1892.479370,1773.249878 1896.421997,1773.284912 
	C1924.752686,1773.536865 1953.084473,1773.658936 1981.415894,1773.820435 
	C1982.892212,1773.828857 1984.368530,1773.821655 1986.203735,1773.821655 
	C1988.829468,1575.263428 1991.450562,1377.067261 1994.075684,1178.553711 
	C1992.570801,1178.452881 1991.287720,1178.270630 1990.008423,1178.295044 
	C1962.019897,1178.831421 1934.033569,1179.628662 1906.042847,1179.846924 
	C1891.580688,1179.959717 1879.150024,1184.665771 1869.091064,1194.725342 
	C1840.147095,1223.671631 1806.397339,1246.359619 1772.633789,1268.952148 
	C1737.147827,1292.697266 1697.965576,1306.787354 1655.261841,1310.064697 
	C1621.397217,1312.663696 1587.503174,1315.114502 1553.576904,1316.581665 
	C1536.325195,1317.327637 1518.974121,1315.727173 1501.666016,1315.259033 
	C1496.685181,1315.124146 1491.697632,1315.238281 1486.020264,1315.238281 
	C1486.020264,1316.912964 1486.026733,1318.677002 1486.019287,1320.441040 
	C1485.574585,1425.935913 1485.082520,1531.430786 1484.743042,1636.926025 
	C1484.702393,1649.571655 1485.766602,1662.204468 1481.625732,1674.524170 
	C1472.840576,1700.660400 1454.890625,1718.911133 1431.934448,1732.965942 
	C1416.137573,1742.637451 1398.656128,1747.937500 1380.946533,1752.601807 
	C1378.423218,1753.266357 1375.651245,1753.124023 1372.994263,1753.124023 
	C1060.002441,1753.122925 747.010620,1753.108276 434.018768,1753.052124 
	C420.038849,1753.049561 405.954437,1753.673462 392.100800,1752.242432 
	C362.793091,1749.215088 338.351013,1735.248169 318.031891,1714.578857 
	C308.914154,1705.303955 301.904053,1693.957031 293.767456,1683.223145 
z"/>
<path fill="#FCFCFC" opacity="1.000000" stroke="none" 
	d="
M910.006226,1442.008179 
	C910.006226,1460.492676 909.879211,1478.480225 910.046631,1496.464844 
	C910.179199,1510.708496 910.688660,1524.948364 910.995605,1539.190796 
	C911.074280,1542.841064 911.458679,1546.558716 910.933838,1550.132568 
	C909.918274,1557.046753 906.943848,1559.564331 899.701599,1559.967041 
	C890.798340,1560.462036 881.851868,1560.349243 872.974854,1561.099243 
	C864.493225,1561.815918 859.627686,1555.923584 859.806091,1547.738892 
	C860.577820,1512.356323 860.607605,1476.957886 861.015991,1441.566528 
	C861.222656,1423.659424 861.698425,1405.755493 861.945923,1387.848755 
	C861.976807,1385.612427 861.446411,1383.348999 861.013184,1381.129883 
	C859.988708,1375.882568 864.983887,1369.298950 870.454163,1369.017700 
	C878.695740,1368.593750 886.953979,1368.466919 895.189270,1367.957153 
	C904.553284,1367.377563 909.721375,1372.349976 909.183472,1381.807495 
	C908.465942,1394.423584 908.892212,1407.112915 909.050171,1419.767944 
	C909.140686,1427.018066 909.672913,1434.262695 910.006226,1442.008179 
M875.068359,1522.499023 
	C875.157593,1528.490967 874.844543,1534.523560 875.444031,1540.463989 
	C876.105835,1547.021118 881.128967,1551.166748 886.808838,1550.774170 
	C892.622803,1550.372437 896.676758,1545.810181 897.037170,1539.228027 
	C897.100830,1538.065308 897.070984,1536.896484 897.064026,1535.730713 
	C896.820557,1495.089600 896.579712,1454.448364 896.324768,1413.807251 
	C896.275635,1405.979126 896.289124,1398.147827 896.054443,1390.324463 
	C895.851135,1383.547119 891.824585,1379.167236 885.928162,1378.867676 
	C879.735107,1378.553101 875.366516,1382.594116 874.543762,1389.595093 
	C874.273010,1391.898926 874.330139,1394.249146 874.343079,1396.577515 
	C874.574646,1438.218140 874.822571,1479.858887 875.068359,1522.499023 
z"/>
<path fill="#FDFDFD" opacity="1.000000" stroke="none" 
	d="
M678.004150,1421.000000 
	C678.004150,1463.153320 678.004211,1504.806641 678.004211,1546.459961 
	C678.004211,1550.433350 677.700012,1554.436035 678.078979,1558.372925 
	C678.585693,1563.636963 672.999023,1569.415649 667.367493,1569.105591 
	C659.892578,1568.693970 652.377930,1569.004150 644.880310,1569.004150 
	C642.097900,1569.004028 638.886230,1569.910034 636.613525,1568.833618 
	C629.769714,1565.592041 627.361816,1559.169556 629.197449,1551.494507 
	C629.536011,1550.078857 629.949707,1548.631714 629.964233,1547.195312 
	C630.337585,1510.288330 630.606934,1473.380127 631.021667,1436.473511 
	C631.200500,1420.557617 631.712646,1404.645508 631.945129,1388.729858 
	C631.982727,1386.154785 631.426880,1383.557617 631.011597,1380.992188 
	C629.929565,1374.307495 634.266907,1367.739868 641.757812,1367.949829 
	C649.249573,1368.159668 656.764832,1368.269775 664.245300,1367.912109 
	C670.601624,1367.607910 675.205933,1370.088013 677.126160,1375.871338 
	C678.315491,1379.453369 677.939331,1383.609741 677.971985,1387.510742 
	C678.063965,1398.506470 678.004150,1409.503540 678.004150,1421.000000 
M664.975281,1541.354004 
	C664.984436,1492.902222 665.005920,1444.450439 664.969055,1395.998657 
	C664.967041,1393.365601 664.824097,1390.638184 664.139038,1388.119995 
	C662.830688,1383.310913 658.365540,1379.960083 653.796387,1380.299683 
	C648.902527,1380.663208 645.212952,1383.075684 643.888733,1388.020020 
	C643.254639,1390.387695 643.039795,1392.930908 643.037354,1395.395020 
	C642.988098,1444.512817 642.997620,1493.630737 642.996521,1542.748535 
	C642.996460,1543.747314 642.954712,1544.750488 643.028748,1545.744263 
	C643.538452,1552.587402 647.867371,1557.078369 653.931641,1557.088989 
	C659.790161,1557.099243 664.144531,1552.839966 664.885437,1546.295166 
	C665.034546,1544.978149 664.952576,1543.634888 664.975281,1541.354004 
z"/>
<path fill="#FCFCFC" opacity="1.000000" stroke="none" 
	d="
M1082.261230,1515.414551 
	C1082.659302,1513.207153 1082.947266,1511.417725 1082.975952,1509.624268 
	C1083.336914,1487.054810 1083.612061,1464.484131 1084.012939,1441.915527 
	C1084.242310,1429.003662 1084.613159,1416.093628 1085.012207,1403.185669 
	C1085.246582,1395.601929 1085.588257,1388.019897 1086.015991,1380.444702 
	C1086.406494,1373.527100 1092.278198,1368.153198 1099.123657,1367.963623 
	C1106.205933,1367.767578 1113.307251,1367.595825 1120.352417,1366.917480 
	C1127.146851,1366.263184 1134.029907,1372.678101 1133.962769,1379.912720 
	C1133.743896,1403.482788 1133.393433,1427.052124 1132.975220,1450.619751 
	C1132.828735,1458.869751 1132.192505,1467.110840 1132.034302,1475.360840 
	C1131.616943,1497.096313 1131.383789,1518.835327 1130.969849,1540.570801 
	C1130.882446,1545.157471 1130.438721,1549.745850 1129.970947,1554.314087 
	C1129.551880,1558.407837 1125.504761,1561.868774 1120.652832,1561.955566 
	C1111.162720,1562.125244 1101.663818,1562.160767 1092.175659,1561.943604 
	C1086.982178,1561.824829 1082.032837,1554.956177 1082.008179,1548.306885 
	C1081.968018,1537.481689 1082.018433,1526.656128 1082.261230,1515.414551 
M1118.949219,1542.827759 
	C1119.002930,1542.164062 1119.099487,1541.500610 1119.104004,1540.836670 
	C1119.451782,1490.731567 1119.796387,1440.626465 1120.112549,1390.521240 
	C1120.121948,1389.037598 1120.012451,1387.502930 1119.637817,1386.076294 
	C1118.365356,1381.229370 1114.294312,1378.113403 1109.425049,1378.080688 
	C1104.392334,1378.046875 1100.086670,1381.346191 1099.003906,1386.416016 
	C1098.488037,1388.831421 1098.367676,1391.365967 1098.352295,1393.848145 
	C1098.125366,1430.470459 1097.964111,1467.093140 1097.745728,1503.715454 
	C1097.675293,1515.533936 1097.375610,1527.351807 1097.389648,1539.169678 
	C1097.397949,1546.213379 1100.864868,1550.846313 1106.340942,1551.854004 
	C1112.042480,1552.903320 1116.151367,1550.202515 1118.949219,1542.827759 
z"/>
<path fill="#171717" opacity="1.000000" stroke="none" 
	d="
M875.067627,1521.999268 
	C874.822571,1479.858887 874.574646,1438.218140 874.343079,1396.577515 
	C874.330139,1394.249146 874.273010,1391.898926 874.543762,1389.595093 
	C875.366516,1382.594116 879.735107,1378.553101 885.928162,1378.867676 
	C891.824585,1379.167236 895.851135,1383.547119 896.054443,1390.324463 
	C896.289124,1398.147827 896.275635,1405.979126 896.324768,1413.807251 
	C896.579712,1454.448364 896.820557,1495.089600 897.064026,1535.730713 
	C897.070984,1536.896484 897.100830,1538.065308 897.037170,1539.228027 
	C896.676758,1545.810181 892.622803,1550.372437 886.808838,1550.774170 
	C881.128967,1551.166748 876.105835,1547.021118 875.444031,1540.463989 
	C874.844543,1534.523560 875.157593,1528.490967 875.067627,1521.999268 
z"/>
<path fill="#171717" opacity="1.000000" stroke="none" 
	d="
M664.976196,1541.828857 
	C664.952576,1543.634888 665.034546,1544.978149 664.885437,1546.295166 
	C664.144531,1552.839966 659.790161,1557.099243 653.931641,1557.088989 
	C647.867371,1557.078369 643.538452,1552.587402 643.028748,1545.744263 
	C642.954712,1544.750488 642.996460,1543.747314 642.996521,1542.748535 
	C642.997620,1493.630737 642.988098,1444.512817 643.037354,1395.395020 
	C643.039795,1392.930908 643.254639,1390.387695 643.888733,1388.020020 
	C645.212952,1383.075684 648.902527,1380.663208 653.796387,1380.299683 
	C658.365540,1379.960083 662.830688,1383.310913 664.139038,1388.119995 
	C664.824097,1390.638184 664.967041,1393.365601 664.969055,1395.998657 
	C665.005920,1444.450439 664.984436,1492.902222 664.976196,1541.828857 
z"/>
<path fill="#171717" opacity="1.000000" stroke="none" 
	d="
M1118.872559,1543.247559 
	C1116.151367,1550.202515 1112.042480,1552.903320 1106.340942,1551.854004 
	C1100.864868,1550.846313 1097.397949,1546.213379 1097.389648,1539.169678 
	C1097.375610,1527.351807 1097.675293,1515.533936 1097.745728,1503.715454 
	C1097.964111,1467.093140 1098.125366,1430.470459 1098.352295,1393.848145 
	C1098.367676,1391.365967 1098.488037,1388.831421 1099.003906,1386.416016 
	C1100.086670,1381.346191 1104.392334,1378.046875 1109.425049,1378.080688 
	C1114.294312,1378.113403 1118.365356,1381.229370 1119.637817,1386.076294 
	C1120.012451,1387.502930 1120.121948,1389.037598 1120.112549,1390.521240 
	C1119.796387,1440.626465 1119.451782,1490.731567 1119.104004,1540.836670 
	C1119.099487,1541.500610 1119.002930,1542.164062 1118.872559,1543.247559 
z"/>
</svg>