<svg version="1.1" id="Layer_1" xmlns="http://www.w3.org/2000/svg" xmlns:xlink="http://www.w3.org/1999/xlink" x="0px" y="0px"
	 width="100%" viewBox="0 0 500 500" enable-background="new 0 0 500 500" xml:space="preserve">
<path fill="#000000" opacity="1.000000" stroke="none" 
	d="
M333.000000,501.000000 
	C222.000031,501.000000 111.500053,501.000000 1.000059,501.000000 
	C1.000040,334.333405 1.000040,167.666794 1.000020,1.000149 
	C167.666565,1.000099 334.333130,1.000099 500.999756,1.000050 
	C500.999847,167.666519 500.999847,334.333038 500.999939,500.999786 
	C445.166656,501.000000 389.333344,501.000000 333.000000,501.000000 
M267.413544,131.963425 
	C263.887787,134.528564 260.103516,136.806488 256.880280,139.707733 
	C241.561234,153.496536 230.088623,170.183853 220.248032,188.189590 
	C212.853882,201.718933 205.185272,215.138748 196.854630,228.103439 
	C189.768677,239.131012 179.553024,247.257263 167.642914,252.595413 
	C153.872284,258.767487 139.277237,260.773376 124.262215,257.988190 
	C105.744408,254.553223 91.059166,244.994278 80.002632,229.840866 
	C72.960197,220.188904 68.764000,209.419769 66.810272,197.570282 
	C64.616928,184.267517 65.882843,171.467484 72.220482,159.699417 
	C78.442009,148.146942 87.900688,139.173981 98.725914,131.836136 
	C117.232742,119.291336 137.351120,113.319145 159.922226,116.945625 
	C183.280884,120.698647 206.364761,139.972763 212.085007,165.218903 
	C212.405548,166.633667 214.168747,167.721542 215.260498,168.961548 
	C215.825577,167.217331 217.215378,165.262054 216.831161,163.760788 
	C211.665146,143.574783 199.953659,128.362747 181.327209,118.854782 
	C162.427597,109.207390 142.771072,108.667305 122.678642,114.711647 
	C109.353691,118.720139 97.756485,125.590714 86.946068,134.349121 
	C76.008354,143.210632 67.864586,153.953094 63.593849,167.116638 
	C59.657318,179.250076 60.024685,191.806671 62.902016,204.392105 
	C67.710945,225.426331 79.330292,241.553528 97.330276,252.941040 
	C112.989037,262.847382 130.180038,265.674225 148.634201,263.123260 
	C172.122116,259.876495 190.004944,247.823685 202.812515,228.703110 
	C212.177780,214.721542 219.232101,199.212555 228.159286,184.910461 
	C235.248840,173.552399 242.917770,162.395126 251.601913,152.236435 
	C261.152985,141.063644 273.376251,132.921051 286.976044,126.952332 
	C298.257385,122.001144 310.300354,120.160332 321.976257,122.326569 
	C343.631561,126.344292 357.213531,141.121872 365.933838,160.544647 
	C372.684692,175.580917 374.803497,191.407150 371.990112,207.750580 
	C369.141541,224.298462 361.972015,238.193573 347.805359,248.066269 
	C335.315369,256.770508 321.105774,259.255707 306.463989,259.852051 
	C300.670837,260.087952 294.786530,258.828857 288.984924,257.971588 
	C271.768799,255.427734 256.415436,248.857666 243.950836,236.401001 
	C240.697144,233.149399 237.858490,229.481201 234.586182,226.250504 
	C233.855698,225.529282 232.102142,225.844315 230.819611,225.682251 
	C230.775375,226.846222 230.207428,228.508392 230.767654,229.097305 
	C236.560425,235.186539 242.123596,241.596344 248.551971,246.955826 
	C259.286865,255.905807 272.354919,260.262146 285.849945,262.819397 
	C293.688934,264.304810 301.833435,265.039124 309.795502,264.771759 
	C317.784607,264.503448 325.717773,262.571045 334.000000,261.318878 
	C334.000000,263.070862 334.000000,264.882996 334.000000,266.695129 
	C334.000000,296.859283 333.667084,327.029053 334.175232,357.184631 
	C334.360443,368.174683 324.578400,377.917236 313.734924,377.939331 
	C252.240295,378.064606 190.743759,378.220001 129.251785,377.795807 
	C118.272774,377.720062 113.499496,373.680450 109.384300,363.721283 
	C108.184792,360.818390 108.066017,357.323181 108.055527,354.097504 
	C107.960670,324.933563 108.015533,295.769196 107.964302,266.605042 
	C107.960968,264.705231 107.445145,262.806335 107.167709,260.906982 
	C106.381020,260.842834 105.594322,260.778687 104.807625,260.714508 
	C104.205078,262.964142 103.087074,265.211670 103.078049,267.463654 
	C102.960419,296.794098 102.953545,326.125336 103.066460,355.455811 
	C103.078758,358.652924 103.670837,361.946136 104.575485,365.023865 
	C107.871429,376.236969 117.347488,382.967651 130.499863,382.978729 
	C188.828293,383.027893 247.156845,383.022308 305.485229,382.956848 
	C310.058472,382.951721 314.657623,382.541656 319.198608,381.959686 
	C330.248260,380.543518 338.993958,370.329346 338.998108,359.080261 
	C339.005096,340.081848 339.000000,321.083405 339.000000,302.084991 
	C339.000000,300.467896 339.000000,298.850800 339.000000,298.201416 
	C349.598999,297.439728 359.683716,297.205017 369.622742,295.878662 
	C382.512543,294.158569 394.001740,288.986084 403.656769,279.924408 
	C411.501495,272.561737 420.757019,268.425049 431.809784,268.956726 
	C435.227448,269.121124 437.140015,269.800690 437.084167,273.979004 
	C436.604248,309.893280 436.333252,345.810364 436.000336,381.726593 
	C435.995697,382.226501 436.187866,382.851898 435.958160,383.202576 
	C435.312073,384.188873 434.670532,385.556396 433.713776,385.899384 
	C427.732880,388.043579 421.414948,387.468018 416.303680,384.442413 
	C410.212097,380.836487 404.032593,376.404053 399.784760,370.874939 
	C392.436584,361.310242 383.952118,353.661713 372.527374,350.119629 
	C365.357605,347.896790 357.704529,347.125366 350.214050,346.098236 
	C347.314972,345.700714 345.231445,347.168884 346.185699,350.400909 
	C352.319611,351.113037 358.219879,351.477478 363.994720,352.529999 
	C379.873749,355.424133 390.191620,366.433838 399.551483,378.251526 
	C407.400085,388.161163 417.464722,392.324951 429.621765,391.925873 
	C438.357208,391.639160 440.875824,388.497162 441.041626,379.839905 
	C441.161438,373.583771 441.934204,367.335938 441.954590,361.082855 
	C442.054443,330.419067 442.039368,299.754547 441.869293,269.091370 
	C441.861755,267.729950 440.160065,265.470673 438.883698,265.169098 
	C429.795441,263.021393 420.628571,263.179321 412.482666,268.084381 
	C405.863922,272.069855 400.155762,277.548920 393.609528,281.676971 
	C376.826324,292.260345 358.296539,293.865814 339.000031,291.599457 
	C339.000031,281.646515 338.833740,271.982056 339.152039,262.333557 
	C339.209900,260.579315 340.847260,258.076843 342.433746,257.293610 
	C365.421875,245.944382 375.799103,226.180389 377.778107,201.953583 
	C379.675415,178.726501 373.693573,157.361572 358.521881,138.847748 
	C348.572144,126.706161 336.108612,119.033463 320.864349,117.204369 
	C301.607849,114.893867 283.882172,120.296783 267.413544,131.963425 
M179.000000,331.459473 
	C178.999985,325.486053 178.997864,319.512634 179.001099,313.539215 
	C179.002274,311.379730 179.280777,308.570953 176.085464,309.212433 
	C174.816132,309.467255 173.192795,312.024811 173.137863,313.583588 
	C172.845901,321.869690 172.996643,330.171600 173.008057,338.468018 
	C173.008957,339.123444 172.865082,340.032471 173.221939,340.385681 
	C174.222382,341.375824 175.383713,342.622528 176.614807,342.790283 
	C177.266479,342.879059 178.727142,341.011383 178.889740,339.891541 
	C179.243637,337.453949 178.999634,334.929535 179.000000,331.459473 
M263.000000,323.533813 
	C263.000000,329.963470 263.000000,336.393127 263.000000,344.384521 
	C265.322418,342.638519 267.776703,341.672363 267.808136,340.632965 
	C268.103455,330.872559 268.069092,321.097504 267.828003,311.334167 
	C267.808228,310.533447 265.566162,309.787598 264.356628,309.016266 
	C263.803925,310.076080 262.815338,311.121185 262.778992,312.198456 
	C262.662720,315.642517 262.899506,319.098480 263.000000,323.533813 
M221.502899,342.999329 
	C222.334961,342.175751 223.875229,341.365112 223.890564,340.526581 
	C224.062347,331.143005 223.999069,321.755127 223.999069,312.366943 
	C222.108704,312.366943 220.607422,312.366943 219.000168,312.366943 
	C219.000168,321.850311 218.953201,330.969269 219.068436,340.086212 
	C219.080765,341.061951 220.038651,342.025726 221.502899,342.999329 
z"/>
<path fill="#FFFFFF" opacity="1.000000" stroke="none" 
	d="
M267.705200,131.730209 
	C283.882172,120.296783 301.607849,114.893867 320.864349,117.204369 
	C336.108612,119.033463 348.572144,126.706161 358.521881,138.847748 
	C373.693573,157.361572 379.675415,178.726501 377.778107,201.953583 
	C375.799103,226.180389 365.421875,245.944382 342.433746,257.293610 
	C340.847260,258.076843 339.209900,260.579315 339.152039,262.333557 
	C338.833740,271.982056 339.000031,281.646515 339.000031,291.599457 
	C358.296539,293.865814 376.826324,292.260345 393.609528,281.676971 
	C400.155762,277.548920 405.863922,272.069855 412.482666,268.084381 
	C420.628571,263.179321 429.795441,263.021393 438.883698,265.169098 
	C440.160065,265.470673 441.861755,267.729950 441.869293,269.091370 
	C442.039368,299.754547 442.054443,330.419067 441.954590,361.082855 
	C441.934204,367.335938 441.161438,373.583771 441.041626,379.839905 
	C440.875824,388.497162 438.357208,391.639160 429.621765,391.925873 
	C417.464722,392.324951 407.400085,388.161163 399.551483,378.251526 
	C390.191620,366.433838 379.873749,355.424133 363.994720,352.529999 
	C358.219879,351.477478 352.319611,351.113037 346.185699,350.400909 
	C345.231445,347.168884 347.314972,345.700714 350.214050,346.098236 
	C357.704529,347.125366 365.357605,347.896790 372.527374,350.119629 
	C383.952118,353.661713 392.436584,361.310242 399.784760,370.874939 
	C404.032593,376.404053 410.212097,380.836487 416.303680,384.442413 
	C421.414948,387.468018 427.732880,388.043579 433.713776,385.899384 
	C434.670532,385.556396 435.312073,384.188873 435.958160,383.202576 
	C436.187866,382.851898 435.995697,382.226501 436.000336,381.726593 
	C436.333252,345.810364 436.604248,309.893280 437.084167,273.979004 
	C437.140015,269.800690 435.227448,269.121124 431.809784,268.956726 
	C420.757019,268.425049 411.501495,272.561737 403.656769,279.924408 
	C394.001740,288.986084 382.512543,294.158569 369.622742,295.878662 
	C359.683716,297.205017 349.598999,297.439728 339.000000,298.201416 
	C339.000000,298.850800 339.000000,300.467896 339.000000,302.084991 
	C339.000000,321.083405 339.005096,340.081848 338.998108,359.080261 
	C338.993958,370.329346 330.248260,380.543518 319.198608,381.959686 
	C314.657623,382.541656 310.058472,382.951721 305.485229,382.956848 
	C247.156845,383.022308 188.828293,383.027893 130.499863,382.978729 
	C117.347488,382.967651 107.871429,376.236969 104.575485,365.023865 
	C103.670837,361.946136 103.078758,358.652924 103.066460,355.455811 
	C102.953545,326.125336 102.960419,296.794098 103.078049,267.463654 
	C103.087074,265.211670 104.205078,262.964142 104.807625,260.714508 
	C105.594322,260.778687 106.381020,260.842834 107.167709,260.906982 
	C107.445145,262.806335 107.960968,264.705231 107.964302,266.605042 
	C108.015533,295.769196 107.960670,324.933563 108.055527,354.097504 
	C108.066017,357.323181 108.184792,360.818390 109.384300,363.721283 
	C113.499496,373.680450 118.272774,377.720062 129.251785,377.795807 
	C190.743759,378.220001 252.240295,378.064606 313.734924,377.939331 
	C324.578400,377.917236 334.360443,368.174683 334.175232,357.184631 
	C333.667084,327.029053 334.000000,296.859283 334.000000,266.695129 
	C334.000000,264.882996 334.000000,263.070862 334.000000,261.318878 
	C325.717773,262.571045 317.784607,264.503448 309.795502,264.771759 
	C301.833435,265.039124 293.688934,264.304810 285.849945,262.819397 
	C272.354919,260.262146 259.286865,255.905807 248.551971,246.955826 
	C242.123596,241.596344 236.560425,235.186539 230.767654,229.097305 
	C230.207428,228.508392 230.775375,226.846222 230.819611,225.682251 
	C232.102142,225.844315 233.855698,225.529282 234.586182,226.250504 
	C237.858490,229.481201 240.697144,233.149399 243.950836,236.401001 
	C256.415436,248.857666 271.768799,255.427734 288.984924,257.971588 
	C294.786530,258.828857 300.670837,260.087952 306.463989,259.852051 
	C321.105774,259.255707 335.315369,256.770508 347.805359,248.066269 
	C361.972015,238.193573 369.141541,224.298462 371.990112,207.750580 
	C374.803497,191.407150 372.684692,175.580917 365.933838,160.544647 
	C357.213531,141.121872 343.631561,126.344292 321.976257,122.326569 
	C310.300354,120.160332 298.257385,122.001144 286.976044,126.952332 
	C273.376251,132.921051 261.152985,141.063644 251.601913,152.236435 
	C242.917770,162.395126 235.248840,173.552399 228.159286,184.910461 
	C219.232101,199.212555 212.177780,214.721542 202.812515,228.703110 
	C190.004944,247.823685 172.122116,259.876495 148.634201,263.123260 
	C130.180038,265.674225 112.989037,262.847382 97.330276,252.941040 
	C79.330292,241.553528 67.710945,225.426331 62.902016,204.392105 
	C60.024685,191.806671 59.657318,179.250076 63.593849,167.116638 
	C67.864586,153.953094 76.008354,143.210632 86.946068,134.349121 
	C97.756485,125.590714 109.353691,118.720139 122.678642,114.711647 
	C142.771072,108.667305 162.427597,109.207390 181.327209,118.854782 
	C199.953659,128.362747 211.665146,143.574783 216.831161,163.760788 
	C217.215378,165.262054 215.825577,167.217331 215.260498,168.961548 
	C214.168747,167.721542 212.405548,166.633667 212.085007,165.218903 
	C206.364761,139.972763 183.280884,120.698647 159.922226,116.945625 
	C137.351120,113.319145 117.232742,119.291336 98.725914,131.836136 
	C87.900688,139.173981 78.442009,148.146942 72.220482,159.699417 
	C65.882843,171.467484 64.616928,184.267517 66.810272,197.570282 
	C68.764000,209.419769 72.960197,220.188904 80.002632,229.840866 
	C91.059166,244.994278 105.744408,254.553223 124.262215,257.988190 
	C139.277237,260.773376 153.872284,258.767487 167.642914,252.595413 
	C179.553024,247.257263 189.768677,239.131012 196.854630,228.103439 
	C205.185272,215.138748 212.853882,201.718933 220.248032,188.189590 
	C230.088623,170.183853 241.561234,153.496536 256.880280,139.707733 
	C260.103516,136.806488 263.887787,134.528564 267.705200,131.730209 
z"/>
<path fill="#FFFFFF" opacity="1.000000" stroke="none" 
	d="
M179.000000,331.950043 
	C178.999634,334.929535 179.243637,337.453949 178.889740,339.891541 
	C178.727142,341.011383 177.266479,342.879059 176.614807,342.790283 
	C175.383713,342.622528 174.222382,341.375824 173.221939,340.385681 
	C172.865082,340.032471 173.008957,339.123444 173.008057,338.468018 
	C172.996643,330.171600 172.845901,321.869690 173.137863,313.583588 
	C173.192795,312.024811 174.816132,309.467255 176.085464,309.212433 
	C179.280777,308.570953 179.002274,311.379730 179.001099,313.539215 
	C178.997864,319.512634 178.999985,325.486053 179.000000,331.950043 
z"/>
<path fill="#FFFFFF" opacity="1.000000" stroke="none" 
	d="
M263.000000,323.041840 
	C262.899506,319.098480 262.662720,315.642517 262.778992,312.198456 
	C262.815338,311.121185 263.803925,310.076080 264.356628,309.016266 
	C265.566162,309.787598 267.808228,310.533447 267.828003,311.334167 
	C268.069092,321.097504 268.103455,330.872559 267.808136,340.632965 
	C267.776703,341.672363 265.322418,342.638519 263.000000,344.384521 
	C263.000000,336.393127 263.000000,329.963470 263.000000,323.041840 
z"/>
<path fill="#FFFFFF" opacity="1.000000" stroke="none" 
	d="
M221.030396,342.997192 
	C220.038651,342.025726 219.080765,341.061951 219.068436,340.086212 
	C218.953201,330.969269 219.000168,321.850311 219.000168,312.366943 
	C220.607422,312.366943 222.108704,312.366943 223.999069,312.366943 
	C223.999069,321.755127 224.062347,331.143005 223.890564,340.526581 
	C223.875229,341.365112 222.334961,342.175751 221.030396,342.997192 
z"/>
</svg>